<?xml version="1.0" standalone="no"?>
<!DOCTYPE svg PUBLIC "-//W3C//DTD SVG 1.1//EN" "http://www.w3.org/Graphics/SVG/1.1/DTD/svg11.dtd" >
<svg xmlns="http://www.w3.org/2000/svg">
<metadata></metadata>
<defs>
<font id="unmasked_bbregular" horiz-adv-x="845" >
<font-face units-per-em="2048" ascent="1536" descent="-512" />
<missing-glyph horiz-adv-x="665" />
<glyph unicode="&#x28;c&#x29;" horiz-adv-x="1488" d="M86 281q0 80 19.5 159.5t51 156.5t72.5 145.5t84 125.5q68 88 155 147.5t189 98.5q20 8 54 19.5t74 20.5t83 15.5t80 6.5q31 0 55.5 -5.5t40.5 -19.5l43 -12q25 -4 61 -36.5t56 -55.5q98 -104 150.5 -239.5t52.5 -277.5q0 -139 -55.5 -265t-173.5 -218 q-29 -23 -55.5 -47.5t-56.5 -47t-66.5 -40.5t-86.5 -29q-72 -16 -148.5 -35.5t-154.5 -15.5q-72 4 -143.5 14.5t-136 37t-118.5 74.5t-89 128q-20 47 -28.5 95t-8.5 100zM256 309q0 -55 12 -106q29 -115 110 -162t187 -47q88 0 185.5 27.5t184.5 70.5t156.5 97.5 t104.5 107.5t50.5 113.5t15.5 121.5q0 82 -25 156q-16 51 -28.5 97t-51.5 81q-16 16 -35.5 31.5t-38.5 32.5q-10 8 -40.5 29.5t-57.5 41.5h-63q-63 0 -125 -7t-121 -36q-63 -31 -125 -79t-109 -101q-39 -43 -72.5 -98t-59 -116.5t-40 -126t-14.5 -128.5zM459 383 q0 72 19.5 139.5t53.5 116.5q35 53 95.5 106.5t136.5 75.5q23 6 43 8t37 2q49 0 76 -18q23 -14 52 -39.5t44 -56.5q8 -39 4 -71t-31 -38h-6q-14 0 -19.5 10.5t-9.5 20.5q-2 6 -4 10l-4 8q-12 16 -32.5 32t-36.5 26q-18 10 -54 10q-29 0 -49 -6q-57 -20 -104 -62.5 t-76 -101.5q-14 -25 -25.5 -65.5t-11.5 -79.5q0 -23 6 -41q8 -35 37 -50q41 -20 94 -20q39 0 82 12.5t84 34.5q14 8 23.5 14.5t19.5 12.5q8 4 17.5 10t23.5 14q16 10 35.5 17.5t36.5 7.5q31 0 31 -29q2 -23 -10.5 -33t-30.5 -22q-6 -4 -11.5 -9t-13.5 -10q-16 -14 -29.5 -22 t-29.5 -18q-6 -4 -12.5 -8.5t-14.5 -8.5q-41 -25 -103.5 -45t-119.5 -20q-45 0 -68 10q-68 27 -106.5 74t-38.5 102z" />
<glyph unicode="&#x28;R&#x29;" horiz-adv-x="1484" d="M86 281q0 80 19.5 159.5t51 156.5t72.5 145.5t84 125.5q68 88 155 147.5t189 98.5q20 8 54 19.5t74 20.5t83 15.5t80 6.5q31 0 55.5 -5.5t40.5 -19.5l43 -12q25 -4 61 -36.5t56 -55.5q98 -104 150.5 -239.5t52.5 -277.5q0 -139 -55.5 -265t-173.5 -218 q-29 -23 -55.5 -47.5t-56.5 -47t-66.5 -40.5t-86.5 -29q-72 -16 -148.5 -35.5t-154.5 -15.5q-72 4 -143.5 14.5t-136 37t-118.5 74.5t-89 128q-20 47 -28.5 95t-8.5 100zM256 309q0 -55 12 -106q29 -115 110 -162t187 -47q88 0 185.5 27.5t184.5 70.5t156.5 97.5 t104.5 107.5t50.5 113.5t15.5 121.5q0 82 -25 156q-16 51 -28.5 97t-51.5 81q-16 16 -35.5 31.5t-38.5 32.5q-10 8 -40.5 29.5t-57.5 41.5h-63q-63 0 -125 -7t-121 -36q-63 -31 -125 -79t-109 -101q-39 -43 -72.5 -98t-59 -116.5t-40 -126t-14.5 -128.5zM482 704.5 q-5 10.5 12 28.5q14 18 49 25.5t57 15.5q66 18 128.5 27.5t129.5 13.5q35 2 64.5 -4t64.5 -10q29 -6 57 -15t48 -32q23 -25 22 -58q0 -41 -29.5 -81t-60.5 -64q-37 -29 -79 -56.5t-85 -50.5q-10 -8 -18 -16t-8 -16q0 -10 7 -17.5t13 -15.5q10 -10 20.5 -22.5t20.5 -24.5 t18.5 -25.5t18.5 -25.5q27 -29 16 -70q-6 -16 -23.5 -26.5t-33.5 1.5q-8 4 -13.5 13.5t-11.5 13.5q-10 8 -17 16.5t-15 16.5q-27 25 -48.5 51.5t-50.5 48.5q-10 8 -30.5 11t-32.5 3q-8 0 -29 -10q-6 -4 -16 -14q-16 -23 -18.5 -56.5t-6.5 -60.5q0 -16 -2 -28.5t-18 -22.5 q-16 -8 -26.5 -2t-18.5 20q-6 12 -12.5 28.5t-2.5 45.5l10 127q4 41 9.5 74t9.5 65q0 16 2 39t2 45q0 33 -8 49q-6 8 -20.5 14.5t-27 13.5t-17.5 17.5zM645 510q4 -14 17 -18q12 -4 26 0t27 8q60 14 119 43q14 6 43.5 19t57.5 31.5t46 40t10 44.5q-29 20 -63.5 27.5 t-71.5 7.5q-23 0 -43 -2t-41 -6q-23 -4 -48.5 -8.5t-45.5 -20.5q-8 -6 -14.5 -20.5t-9.5 -31t-5 -33t-4 -26.5q-4 -41 0 -55z" />
<glyph horiz-adv-x="0" />
<glyph unicode="&#xd;" horiz-adv-x="665" />
<glyph unicode=" "  horiz-adv-x="665" />
<glyph unicode="&#x09;" horiz-adv-x="665" />
<glyph unicode="&#xa0;" horiz-adv-x="665" />
<glyph unicode="!" horiz-adv-x="456" d="M70 -4q0 -45 45 -70q16 -10 40.5 -9t49 8t47 19.5t35.5 24.5q29 29 28 60q0 18 -9 34.5t-19 32.5l-43 23q-25 12 -55.5 5t-57.5 -26.5t-44 -47t-17 -54.5zM184 414q0 23 2 41t4 32l13 70q4 10 9 42t9 52q6 29 11.5 59.5t9.5 59.5q18 88 30 182q4 33 11.5 67t27.5 56 q16 20 50 25.5t57 -8.5q23 -16 27 -53t6 -64q0 -39 -7.5 -77t-13.5 -79q-6 -43 -14 -75.5t-17.5 -64.5t-18.5 -64.5t-18 -73.5q-6 -29 -10 -63t-13 -65.5t-24.5 -57t-44.5 -36.5q-27 -10 -43 -6t-25 19.5t-13.5 37t-4.5 44.5z" />
<glyph unicode="&#x22;" horiz-adv-x="675" d="M100 584q0 -45 8.5 -85t36.5 -65q23 -20 57 -17t50 32q4 10 7 28.5t5 38t3 36.5t1 26v73q0 35 4 79t7 63q2 29 2 55v55q2 41 -11.5 75t-58.5 38q-35 2 -55.5 -12.5t-30.5 -40t-14.5 -58.5t-4.5 -65q0 -35 2.5 -65t0.5 -52q-2 -29 -5.5 -64.5t-3.5 -74.5zM406 625 q0 39 3 74.5t5 64.5q2 23 0 53.5t-2 65.5q0 33 4 66.5t14 58t30.5 39t55.5 10.5q45 -4 58.5 -39t13.5 -74q-2 -29 -2 -55t-2 -55q-2 -18 -6.5 -62.5t-4.5 -79.5v-71q0 -10 -1 -28t-3 -37t-5 -37.5t-7 -29.5q-16 -29 -50 -31.5t-56 17.5q-29 25 -37 65t-8 85z" />
<glyph unicode="#" horiz-adv-x="1030" d="M45 250q-14 29 3.5 50.5t41.5 31.5q6 2 24.5 7t43 9t50 9t44.5 8q2 35 2 70.5v70.5v14q-31 -4 -61.5 -3t-57 8t-45 24.5t-27.5 46.5q-10 37 25 62.5t82 29.5l86 10q0 47 1 93.5t3 93.5q2 27 5 57.5t24 48.5q16 16 46 22.5t52 -3.5q20 -12 30.5 -39t13.5 -57.5t3 -62.5 v-52q0 -18 -1 -36t-3 -34q18 2 35.5 4t34.5 2q16 0 48 4t70 11q2 55 3.5 109t3.5 110q0 25 3 56.5t23 49.5q18 16 47 22.5t52 -5.5q20 -12 30.5 -39t14.5 -57.5t3 -62.5t-1 -52q0 -53 -6 -109q10 2 19 2h17q35 0 75 -2t54 -39q8 -23 3 -39t-17 -28.5t-29.5 -22.5t-33.5 -18 q-20 -10 -48 -18.5t-61 -14.5v-152q25 4 44.5 5t29.5 4q27 4 61.5 4.5t57.5 -13.5q25 -16 27.5 -45.5t-21.5 -48.5q-35 -25 -77 -38t-83 -23q-8 -2 -18.5 -3t-22.5 -6q2 -29 3 -58.5t1 -57.5q0 -39 -6 -78q-4 -27 -13.5 -47.5t-37.5 -30.5q-27 -8 -52.5 4t-35.5 37 q-8 25 -9.5 56.5t-3.5 56.5t-1 48t1 46q-51 -8 -96 -13.5t-69 -9.5l-43 -6q-2 -37 1 -73.5t3 -73.5q0 -39 -7 -78q-4 -25 -13 -46.5t-38 -29.5q-27 -8 -52.5 3.5t-35.5 35.5q-10 25 -10 56.5t-2 58.5q-2 29 -1 58.5t1 64.5q-29 -4 -56.5 -4t-56.5 -5q-29 -4 -55.5 13.5 t-38.5 46.5zM406 499.5q0 -16.5 1 -42t1 -66.5q33 10 68.5 13.5t70.5 7.5q10 2 26.5 4t38.5 6q4 37 4 72.5v74.5q-57 -8 -111 -13t-97 -11q0 -8 -1 -18.5t-1 -27z" />
<glyph unicode="$" horiz-adv-x="1136" d="M34 481q1 25 10 48.5t22.5 45t25.5 37.5q33 45 68 88t73 84q33 33 68 66t76 65q-6 23 -13.5 45.5t-13.5 45.5q-10 33 -19 72.5t1 68.5q10 27 35.5 43t52.5 6q18 -6 34.5 -24.5t31 -44t24.5 -55.5t20 -56q23 12 48.5 24.5t54.5 24.5l49 18q43 8 97.5 13.5t94.5 -0.5 q29 -4 41.5 -21.5t12.5 -40.5q0 -18 -9.5 -37.5t-27.5 -29.5q-37 -25 -87 -32t-95 -22q-127 -39 -209 -101t-148 -134q-14 -16 -16 -32.5t4 -27.5q2 -4 14.5 -4t28.5 1t31.5 4.5t23.5 3.5q47 4 97.5 7t97.5 7q18 2 32.5 2h30.5q33 0 60.5 -3t62.5 -7q41 -6 102.5 -13.5 t100.5 -19.5q59 -23 72.5 -61.5t1.5 -85.5q-10 -43 -32 -89.5t-63 -91.5q-47 -49 -93 -96t-99 -88q12 -35 23.5 -71t17.5 -70q6 -35 5 -64t-24 -47t-52 -12t-48 35q-18 29 -32.5 67.5t-26.5 71.5q-33 -20 -66 -38.5t-69 -23.5q-47 -4 -84 27t-27 80q4 20 18.5 32.5t34 21.5 t40 15.5t38.5 16.5q45 23 89 48.5t87 51.5q39 23 73 58.5t62 70.5q20 25 22.5 43.5t-7 30.5t-29.5 19.5t-47 7.5q-29 2 -58.5 3t-58.5 1q-72 0 -142.5 -6.5t-139.5 -16.5l-197 -30q-18 -4 -41 -7.5t-45 -3.5q-25 0 -47.5 8.5t-34.5 32.5q-10 20 -9 45z" />
<glyph unicode="%" horiz-adv-x="1099" d="M43 733q0 78 35 157t78 136q35 43 77.5 72.5t94.5 50.5q14 6 40.5 13t56.5 11.5t56.5 4.5t38.5 -13q29 -6 49.5 -23.5t30.5 -27.5q43 -47 68.5 -106.5t29.5 -120.5q35 51 68 101t65 99q23 33 49.5 71t59.5 50q29 10 56.5 0t37.5 -39q8 -29 -5 -67.5t-36.5 -80.5t-49 -82 t-42.5 -67q-31 -53 -67.5 -102t-73.5 -98q-14 -18 -33.5 -42t-39 -49.5t-37 -52t-27.5 -51.5q39 0 77.5 17.5t83.5 15.5q35 0 72 -4t69.5 -16.5t59.5 -36t45 -62.5q12 -25 17.5 -51.5t5.5 -54.5q0 -78 -32 -154t-73 -133q-35 -45 -77 -74.5t-93 -52.5q-14 -6 -40.5 -14.5 t-57.5 -13.5t-62.5 -4t-52.5 14q-12 2 -30.5 18t-28.5 27q-47 47 -73.5 107.5t-33.5 123.5q-41 -66 -78.5 -131.5t-84.5 -124.5q-25 -29 -49.5 -51.5t-53.5 -14.5q-29 4 -41 35t0 68t38 78t44 75q23 41 47.5 76t48.5 72q27 41 49.5 84t51.5 84t55.5 82t52.5 82q-8 -4 -24 -8 q-37 -8 -75 -18.5t-77 -6.5q-35 2 -70.5 6t-68.5 17.5t-59.5 37t-43.5 64.5q-10 23 -14 47.5t-4 50.5zM195 731q10 -41 39.5 -59.5t70.5 -18.5q33 0 69 10.5t68.5 27t59 35.5t39.5 40q25 39 24 88q0 27 -10 57q-14 41 -32.5 65.5t-59.5 51.5q-31 0 -59.5 -1t-57.5 -15 q-23 -10 -46.5 -27.5t-39.5 -38.5q-35 -41 -56 -101.5t-9 -113.5zM535 164q0 -29 10 -64q6 -16 11 -33.5t19 -29.5q45 -35 83 -47.5t98 16.5q23 12 45.5 31t38.5 39q35 41 55 102.5t4 114.5q-10 41 -40 57.5t-66 16.5q-33 0 -70 -11.5t-69.5 -28t-59.5 -38t-39 -41.5 q-10 -18 -15 -40t-5 -44z" />
<glyph unicode="&#x26;" horiz-adv-x="997" d="M39 186q0 76 33 144q23 51 57.5 88t73.5 78q29 29 42 53t5 59q-4 20 -18.5 39t-31 36t-29.5 36.5t-15 44.5q-6 61 32.5 125.5t101 118t138.5 88t143 34.5q74 0 121 -45q57 -55 58 -137q0 -57 -26 -114.5t-67 -100.5q-72 -78 -99.5 -123t-27.5 -78t18.5 -56t39.5 -58 q10 -18 28.5 -46t40 -54.5t44 -45t38.5 -16.5q33 10 41 19.5t19 39.5q6 18 1 41t-10.5 47.5t-8.5 46t5 37.5q18 39 52 39q27 0 50 -21.5t36 -43.5q16 -27 25 -61.5t9 -71.5q0 -51 -18 -90q-14 -31 -32.5 -56.5t-41.5 -48.5q-6 -20 1 -35.5t22 -31.5q16 -20 29.5 -45t3.5 -56 t-37 -49t-56 -16q-27 4 -41 27.5t-30 39.5q-39 45 -90 23q-23 -12 -44.5 -24.5t-45.5 -20.5q-57 -25 -114.5 -41.5t-117.5 -16.5q-94 0 -170 47q-68 43 -102.5 110t-34.5 142zM213 207q0 -47 18 -90q23 -47 69 -60.5t97 -9.5q41 4 79 22.5t69 49.5q20 20 24 32.5t-2 23.5 t-17 22.5t-22 29.5l-24 35q-23 31 -35 45.5t-22.5 23.5t-20.5 18t-25 32q-16 23 -37.5 25t-44 -8.5t-42 -29t-29.5 -36.5q-35 -59 -35 -125zM336 811q0 -39 24.5 -71.5t57.5 -45.5l43 39q53 53 86 107q16 27 25.5 53.5t-1.5 54.5q-14 29 -39.5 24t-52.5 -16q-31 -10 -59 -30 t-51 -43q-33 -33 -33 -72z" />
<glyph unicode="'" horiz-adv-x="387" d="M115 584q0 39 3 74.5t5 64.5q2 23 0 52.5t-2 64.5q0 33 4 65.5t14.5 58t30.5 40t55 12.5q45 -4 58.5 -38t11.5 -75v-55.5t-2 -54.5q-2 -18 -6 -62.5t-4 -79.5v-73q0 -8 -1 -25.5t-3.5 -37t-5.5 -38t-7 -28.5q-16 -29 -50 -32t-56 17q-29 25 -37 65t-8 85z" />
<glyph unicode="(" horiz-adv-x="624" d="M66 426q0 43 4 89t12 93q16 90 42.5 173t63.5 165q23 55 43.5 92t36.5 60q66 90 127.5 124.5t106.5 34.5q37 0 55 -19t6 -48q-16 -37 -54 -64.5t-63 -56.5q-78 -88 -118.5 -175t-67.5 -196q-16 -59 -24.5 -123.5t-8.5 -130.5q0 -74 12.5 -147.5t36.5 -138.5 q25 -66 55.5 -127.5t82.5 -106.5q14 -12 34.5 -24.5t39 -25.5t31.5 -30.5t13 -40.5q-2 -31 -25.5 -42t-51.5 -11q-16 0 -30.5 2t-27.5 6q-41 12 -77.5 39t-67.5 62t-54.5 74.5t-39.5 78.5q-45 109 -68.5 208t-23.5 206z" />
<glyph unicode=")" horiz-adv-x="641" d="M82 -182q8 18 22.5 33.5t32 31t34.5 28.5t30 28q78 88 116.5 174t67.5 194q16 59 24.5 125t8.5 131q0 74 -12.5 147.5t-36.5 139.5q-25 66 -55.5 127t-82.5 106q-14 12 -34.5 24.5t-39 26t-31.5 31t-13 39.5q2 31 25.5 42t51.5 11q16 0 31 -2t27 -6q41 -12 77.5 -38.5 t67.5 -61.5t54.5 -75t39.5 -79q45 -109 69 -208t24 -205q0 -43 -4.5 -89.5t-12.5 -93.5q-16 -90 -42.5 -173t-61.5 -165q-47 -106 -80 -153q-66 -88 -127.5 -123t-106.5 -35q-39 0 -56 19.5t-7 48.5z" />
<glyph unicode="*" horiz-adv-x="985" d="M89 931q-13 25 5 66q16 35 46 43.5t65 -10.5q68 -39 125 -84q16 -10 32.5 -24.5t38.5 -12.5q27 2 35 39t8 78q0 29 -2 54.5t-2 35.5q0 35 2 63t39 44q37 14 58.5 4t32 -31.5t13.5 -48.5t3 -47q0 -12 -3 -36t-4 -48.5t-1 -47t4 -32.5q8 -16 16 -20.5t17.5 -1t18.5 11.5 t17 14q29 27 57.5 52.5t59.5 45.5q35 23 64.5 18t50.5 -44q18 -35 -3.5 -60.5t-47.5 -48.5q-27 -23 -53.5 -43t-51.5 -43q-29 -29 -29 -51q0 -25 41 -55q25 -18 60 -37t62.5 -41.5t36.5 -51t-17 -67.5q-25 -33 -54.5 -29t-60.5 25.5t-59.5 50.5t-51.5 45q-25 16 -35 11 t-12 -21t1 -36.5t7 -35.5q10 -41 11 -82q0 -35 -11 -71q-10 -31 -41.5 -57.5t-68.5 -16.5q-25 8 -32 30.5t-7 47.5q0 16 1 32.5t1 30.5q-2 14 2 43t4 58q0 23 -4 39t-14 20q-14 6 -32.5 -2t-38 -22.5t-36 -31t-26.5 -22.5q-12 -10 -29.5 -25.5t-36 -29.5t-38 -23.5 t-38.5 -9.5q-23 0 -40 12.5t-27.5 31t-10.5 37.5t13 36q23 27 56.5 46t69.5 37.5t66.5 40t48.5 56.5q8 16 2 29.5t-19 24t-30.5 17.5t-31.5 11q-41 12 -73 31.5t-69 40.5q-37 23 -50 48z" />
<glyph unicode="+" horiz-adv-x="851" d="M59 422q-10 39 25 64.5t82 29.5l115 12q23 4 41 7.5t38 7.5q0 23 1 42t1 38q-2 39 -1 76.5t4 74.5q0 29 3 63.5t19 57.5q18 23 47 23t45 -27q20 -39 27.5 -85t11.5 -87q4 -39 6 -77t2 -77q37 4 73 11.5t75 5.5q35 0 74.5 -2t54.5 -39q8 -23 3 -39.5t-17.5 -28.5 t-30 -22.5t-33.5 -18.5q-45 -23 -95 -33t-102 -14q0 -14 1 -27.5t1 -27.5q4 -37 -1 -75t-3 -75q0 -29 -20.5 -53.5t-48.5 -34.5q-31 -10 -49.5 9.5t-24.5 48.5q-2 8 -5 39.5t-5 68.5t-3 68.5t1 40.5q-47 -8 -90 -15.5t-84 -7.5q-47 0 -86 15.5t-52 62.5z" />
<glyph unicode="," horiz-adv-x="395" d="M66 -115q-4 27 11 45.5t29 36.5q37 47 50 101q4 25 5 55.5t-5 52.5q-10 35 -17.5 66.5t19.5 64.5q18 25 49.5 30t56.5 -13t32 -49t11 -62q2 -27 5 -53.5t3 -55.5q-2 -61 -20.5 -120.5t-61.5 -104.5q-16 -16 -48.5 -31.5t-61.5 -15.5q-23 0 -38 11.5t-19 41.5z" />
<glyph unicode="-" d="M45 463q-10 37 24.5 62.5t84.5 29.5l112 14q61 10 113.5 20.5t101.5 12.5q47 2 90 11.5t88 9.5h38t38.5 -3.5t32.5 -12.5t23 -27q8 -23 2.5 -39.5t-17.5 -28.5t-29.5 -21.5t-33.5 -17.5q-41 -20 -87 -30.5t-93.5 -15.5t-94.5 -9t-90 -12q-29 -4 -73 -12.5t-89 -8.5 q-47 0 -88 15.5t-53 62.5z" />
<glyph unicode="." horiz-adv-x="405" d="M88 104q10 29 41 45.5t67.5 19.5t70.5 -6t50 -32q20 -31 11 -63.5t-35.5 -57t-63 -38t-69.5 -3.5q-51 14 -68.5 53t-3.5 82z" />
<glyph unicode="/" horiz-adv-x="966" d="M22 -158q-12 31 1 68q12 37 36.5 78t44.5 75q23 41 46.5 76t48.5 72q29 41 51 84t51 84q41 57 77 113.5t73 115.5q76 123 154.5 242t156.5 237q23 33 49.5 71t56.5 50q29 10 58 0t37 -39t-5.5 -67.5t-36 -80.5t-48 -82t-42.5 -67q-35 -55 -68.5 -106t-70.5 -103.5 t-79 -108.5t-93 -122q-49 -63 -87 -132t-81 -134q-49 -74 -91 -150.5t-95 -142.5q-25 -29 -49.5 -51.5t-55.5 -14.5q-27 4 -39 35z" />
<glyph unicode="0" horiz-adv-x="1216" d="M61 319q0 68 16.5 135.5t43 133t61.5 124t72 107.5q57 74 132 124t161 83q16 6 45 15.5t62.5 17.5t69.5 14t67 6q27 0 48 -5t33 -17q49 -10 85.5 -39t52.5 -49q84 -90 128 -204t44 -233q0 -117 -47.5 -224t-147.5 -185q-25 -18 -47 -40t-48 -40t-56.5 -34.5t-71.5 -24.5 q-63 -14 -128 -30.5t-130 -12.5q-59 2 -120.5 11t-116 31.5t-100.5 63.5t-75 109q-33 74 -33 163zM246 358q0 -47 8 -82q23 -88 84 -123.5t143 -35.5q68 0 142.5 20.5t142.5 54t122 75.5t81 83t38 88t11 94q0 59 -19 119q-12 39 -22 74t-39 63q-12 12 -26.5 24.5t-30.5 25.5 q-6 4 -31 20t-43 33q-63 0 -121.5 -2t-118.5 -31q-47 -23 -94 -59.5t-84 -77.5q-61 -70 -102 -167t-41 -196z" />
<glyph unicode="1" horiz-adv-x="520" d="M37 760q0 25 15.5 47t37 41.5t46 36t40.5 30.5q37 31 71 75.5t77 62.5q37 16 60.5 8t35.5 -32.5t17 -59.5t5 -74q0 -49 -4 -95l-6 -69q-4 -111 -9 -222.5t-5 -223.5q-2 -53 3 -97.5t5 -85.5q0 -63 -23 -114q-20 -45 -61 -45t-68 45q-10 18 -13 40.5t-3 49.5q0 29 2 59.5 t2 52.5v472q0 8 1 24t-1 31.5t-6 30t-12 20.5q-16 8 -39 -8.5t-37 -24.5q-20 -12 -43 -23.5t-43 -11.5q-18 0 -30.5 12.5t-14.5 47.5z" />
<glyph unicode="2" horiz-adv-x="1071" d="M60.5 12.5q-11.5 26.5 19.5 61.5q27 31 48.5 56.5t47.5 53.5q29 35 64.5 71t66.5 69q49 49 89 85.5t76 69.5t69.5 63.5t72.5 67.5q35 35 68 62.5t59 58.5q10 10 26.5 27.5t29 37t17.5 38t-7 30.5q-10 12 -32.5 17.5t-49.5 5.5q-59 0 -128 -9.5t-126 -33.5 q-33 -14 -54.5 -32.5t-45.5 -41.5q-12 -12 -25.5 -23.5t-26.5 -25.5q-10 -10 -15 -24.5t-15 -24.5q-18 -23 -47 -20t-52 20q-23 16 -26.5 32.5t0.5 43.5l18 40q25 57 67 102.5t95 79.5t111.5 55.5t115.5 31.5q55 10 108.5 18t113.5 4q47 -2 100 -9t90 -42q29 -27 41 -56.5 t12 -62.5q0 -43 -17.5 -88t-43.5 -84q-33 -47 -79 -91t-87 -83q-45 -43 -91 -83t-91 -81q-35 -35 -71 -67.5t-71 -67.5q-25 -25 -55.5 -56.5t-44.5 -66.5q-10 -23 -1 -33t25.5 -14t37 -4h34.5q53 0 103.5 -1t103.5 -1q47 -2 93 4t93 4q16 0 34 -1t32 -5t21.5 -15.5 t5.5 -35.5q-4 -45 -33 -64.5t-67 -25.5t-77.5 -6t-70.5 -4q-61 -8 -121.5 -10.5t-122.5 -2.5q-61 0 -121.5 1t-122.5 1q-25 0 -63.5 10.5t-67 29t-40 45z" />
<glyph unicode="3" horiz-adv-x="1054" d="M67 207.5q-1 23.5 9 46.5t33.5 36t48.5 13q23 0 41 -11t28 -34q12 -29 17.5 -47t34.5 -39q18 -14 37.5 -23.5t39.5 -17.5q35 -16 78 -23.5t90 -7.5q66 0 130.5 19.5t109.5 64.5q23 23 39 54.5t16 66.5t-16 60q-12 20 -37 32.5t-52.5 18.5t-55 8t-48.5 2q-25 0 -52.5 -7 t-55 -14.5t-55 -10.5t-50.5 5q-25 8 -40 31t-15 47q0 35 18.5 50.5t45.5 29.5q41 20 90 36.5t97 38t89 52.5t63 78q18 37 19 63q0 41 -37 56.5t-88 15.5q-57 0 -114.5 -11.5t-86.5 -19.5q-68 -16 -122 -45.5t-107 -77.5q-37 -33 -84 -32q-29 0 -47.5 18.5t-9.5 63.5 q20 47 59 82.5t84 62.5t91 45t79 29q84 27 175 49t179 10q47 -6 83 -27.5t59.5 -53.5t35 -70.5t11.5 -79.5q0 -74 -33 -138q-6 -10 -21.5 -29.5t-30 -40t-21.5 -39t5 -28.5q16 -12 37.5 -18.5t44.5 -16.5q25 -14 43.5 -38.5t30.5 -54t17 -60.5t3 -58q-4 -96 -55 -170.5 t-128 -125t-168 -74t-175 -15.5q-45 4 -94 14.5t-95 28t-88 44t-73 61.5q-14 14 -26.5 35.5t-20.5 44t-9 46z" />
<glyph unicode="4" horiz-adv-x="993" d="M80 934q0 35 6 70q10 41 41 51t68 8q47 -2 54 -34t3 -73q-2 -45 -7 -89t-1 -89q4 -39 2 -84t14 -80q16 -33 56 -47t73 -12q51 0 104.5 5t102.5 13q35 4 64.5 19.5t48.5 50.5q18 35 21 70t7 73q4 45 5 85t1 85q0 37 10.5 79t51.5 52t67.5 -13t26.5 -64q4 -102 -6 -205 q-4 -57 0 -113.5t0 -116.5q-4 -66 -5 -129t-1 -141q4 -41 9 -78.5t11 -76.5q4 -39 13.5 -73t3.5 -73q-4 -35 -27 -59.5t-59 -28.5q-37 -4 -57.5 26.5t-32.5 61.5q-14 37 -19.5 80t-5.5 86q0 35 2 69.5t4 67.5q2 47 -16.5 62.5t-57.5 17.5q-41 4 -80.5 6t-78.5 0 q-41 0 -76 -6t-66.5 -13t-66.5 -12.5t-76 -3.5q-43 4 -75 40t-36 71q-8 43 -12 87t-4 89q0 35 1 69t1 68v34t-2 34q-2 20 -3 40.5t-1 43.5z" />
<glyph unicode="5" horiz-adv-x="1107" d="M65.5 932q-2.5 35 22.5 51q12 8 32.5 8t43 -2t44 -4t38.5 -2q41 4 85 8.5t85 12.5q61 12 124.5 19t125.5 17q43 8 89 26.5t87 16.5q86 0 67 -88q-10 -53 -50 -72.5t-87 -27.5q-92 -14 -184 -17.5t-182 -23.5q-29 -6 -54.5 -13t-47 -19.5t-34 -32t-12.5 -48.5 q0 -14 3 -41.5t11 -44.5q16 -29 27.5 -38t34.5 -9q41 0 83 23.5t77 36.5q125 45 219 45q92 0 163.5 -43t124.5 -140q45 -84 46 -176q0 -104 -55.5 -195t-160.5 -145q-78 -39 -151.5 -56t-157.5 -28q-23 -4 -59.5 -6t-83.5 -2q-53 0 -109.5 6t-100.5 24.5t-70.5 50.5 t-18.5 85q6 39 24.5 52.5t42.5 13.5q23 0 44.5 -6.5t41.5 -12.5q111 -29 234 -29q59 0 115.5 8.5t105.5 30.5q31 12 62.5 35t59.5 50.5t46 62.5t21 72q2 41 -16.5 69.5t-49.5 47t-67.5 27.5t-69.5 9q-74 0 -153 -27.5t-142 -68.5q-16 -10 -35.5 -24.5t-41 -27t-43 -21.5 t-42.5 -9q-35 0 -59 27q-23 27 -32 60.5t-9 74.5q0 57 8 115.5t2 103.5q-4 23 -19.5 60.5t-27.5 76.5t-14.5 74z" />
<glyph unicode="6" horiz-adv-x="1017" d="M41 444q0 102 37 193q20 51 50 103.5t66.5 98.5t82 82.5t98.5 61.5q55 27 110.5 52.5t114.5 39.5q18 4 46 9.5t56 5.5q18 0 34 -2.5t28 -12.5q31 -23 31 -59q0 -20 -10.5 -40t-30.5 -30q-31 -18 -69 -19t-73 -12q-53 -12 -98 -36.5t-92 -53.5q-35 -23 -75 -58.5 t-69.5 -79.5t-45 -91t-1.5 -92q25 23 50.5 36t48.5 23q39 18 73.5 31.5t69.5 23.5q82 25 160 25q55 0 115 -12q61 -12 107 -52.5t81 -93.5q41 -63 41 -151q0 -49 -13.5 -100.5t-36 -97.5t-52 -85t-64.5 -63q-49 -37 -111.5 -54.5t-130.5 -17.5q-94 0 -185 28.5t-157 80.5 q-92 72 -139 185.5t-47 233.5zM281 289q0 -16 7 -39t20.5 -44.5t28.5 -40t32 -26.5q16 -12 39 -20q18 -8 43.5 -14.5t58.5 -10.5q12 -4 42 -1t42 7q53 10 89.5 24.5t61.5 43.5q35 41 57.5 88t10.5 104q-16 61 -60 84t-98 23q-55 0 -112.5 -14.5t-98.5 -28.5 q-20 -6 -47.5 -18.5t-53.5 -30t-43 -39t-19 -47.5z" />
<glyph unicode="7" horiz-adv-x="958" d="M15.5 932.5q13.5 23.5 40 36t62.5 16.5t68 4q18 0 35 -1t27 -1q57 -4 116.5 2t119 15.5t118 19.5t117.5 16q33 4 69.5 11.5t71.5 7.5q31 0 56.5 -11.5t41.5 -43.5q23 -43 1.5 -85t-46.5 -77q-51 -72 -115.5 -130.5t-123.5 -123.5q-66 -76 -126.5 -158t-107.5 -170 q-23 -41 -45 -81t-39 -83q-10 -25 -24.5 -55.5t-32.5 -55t-44 -34.5t-56 4q-23 10 -31 24.5t-8 30.5t5 33.5t9 36.5q12 55 39 109.5t59.5 105.5t68.5 100t67 94q31 43 56 86t60 82q29 33 53.5 68t53.5 66q25 29 24.5 48t-47.5 15q-20 -2 -57 -5t-59 -7q-49 -4 -98.5 -6 t-100.5 -2h-62q-23 2 -54.5 -2.5t-63.5 -4.5q-35 0 -60.5 8.5t-36.5 34.5q-14 39 -0.5 62.5z" />
<glyph unicode="8" horiz-adv-x="1157" d="M43 238q0 53 18.5 106t59.5 98q37 39 74 66q-35 29 -55.5 65.5t-20.5 90.5q0 37 12 79q25 88 87.5 159t144 119t176 70.5t184.5 14.5q53 0 112.5 -9.5t108.5 -31t82 -59t33 -95.5q0 -43 -21 -96q-23 -53 -56.5 -97t-74.5 -79q8 -4 15.5 -5t17.5 -5q70 -29 121 -90.5 t49 -145.5q0 -68 -29.5 -132t-76 -119.5t-103.5 -100.5t-115 -76q-117 -66 -247 -65q-16 0 -30.5 1t-31.5 3q-43 4 -84 5t-80 6t-75.5 17.5t-71.5 40.5q-57 47 -90 117t-33 148zM227 236q0 -12 3 -30t10 -28q16 -27 31.5 -42t29.5 -25q16 -10 33 -17q39 -20 85 -26.5 t91 -1.5q29 4 57.5 6t57.5 12t52 20.5t50 26.5q20 14 47 31.5t51.5 38t46 44t31.5 48.5q10 23 18.5 52.5t-1.5 53.5q-18 55 -70 64q-14 4 -28.5 4h-30.5h-62q-37 0 -74 -6t-71 -10q-35 -4 -66 -14.5t-63 -20.5q-31 -8 -63 -17.5t-60 -25.5q-27 -14 -46.5 -34t-35.5 -44 q-10 -14 -16.5 -27.5t-6.5 -31.5zM328.5 763q-23.5 -48 3.5 -101q12 -25 45 -34.5t67 -9.5q29 0 56.5 5.5t44.5 9.5q55 16 102 37q31 10 53.5 27.5t47.5 37.5q27 23 56.5 50.5t43.5 60.5q4 12 7 32.5t-9 32.5q-6 6 -18.5 9.5t-38 5.5t-67.5 1t-110 -1q-29 4 -61.5 -7.5 t-58.5 -21.5q-27 -10 -50.5 -25.5t-48.5 -31.5q-41 -29 -64.5 -77z" />
<glyph unicode="9" horiz-adv-x="1054" d="M51 672q0 72 45 145q68 106 167 189.5t226 109.5q61 12 132 12q72 0 142.5 -14t129.5 -49q63 -37 88 -99.5t8 -134.5q-16 -72 -40.5 -142.5t-41.5 -141.5q-18 -82 -35.5 -162t-35.5 -162q-10 -37 -17.5 -71.5t-11.5 -71.5q-4 -33 -5 -64.5t-11 -60.5t-45 -53.5t-70 -24.5 q-18 0 -33.5 10.5t-24.5 32.5q-8 25 -8 60q0 59 20.5 118.5t35.5 114.5l20 86t21 86q4 23 15 60.5t-1 58.5q-8 12 -20.5 11t-27 -6t-27.5 -13.5t-21 -12.5q-66 -27 -140.5 -41t-146.5 -10q-61 4 -121.5 23.5t-103.5 66.5q-33 35 -47.5 72t-14.5 78zM232 705.5 q-1 -27.5 16 -50.5q23 -29 56.5 -39t68.5 -10q20 0 40.5 2t37.5 4q55 8 111 23.5t104 42.5q49 29 90 69t59 93q16 49 -15.5 74.5t-82.5 36t-107.5 9t-91.5 -5.5q-16 -2 -52 -14t-52 -20q-27 -14 -52.5 -30t-48.5 -38q-16 -16 -35.5 -40t-32 -51.5t-13.5 -55z" />
<glyph unicode=":" horiz-adv-x="446" d="M117 131q8 27 38.5 44.5t66.5 22.5t71 -5.5t51 -34.5q20 -31 11 -64t-34.5 -57.5t-63.5 -37.5t-71 -3q-49 14 -67 53t-2 82zM131 451q0 27 17.5 54t44 46.5t57 26.5t55.5 -5q45 -33 58.5 -52t13.5 -38q0 -31 -29 -59q-12 -12 -34.5 -24.5t-47 -19.5t-49 -8t-41.5 9 q-45 25 -45 70z" />
<glyph unicode=";" horiz-adv-x="432" d="M72 -115q-4 27 11 45.5t30 36.5q37 47 49 101q4 25 5 55.5t-5 52.5q-10 35 -17.5 66.5t19.5 64.5q18 25 49.5 30t56.5 -13t32 -49t11 -62q2 -27 5.5 -53.5t3.5 -55.5q-2 -61 -20.5 -120.5t-61.5 -104.5q-16 -16 -49 -31.5t-62 -15.5q-23 0 -38 11.5t-19 41.5zM106 559 q0 27 17.5 54.5t44.5 47t57.5 26.5t55.5 -5q45 -33 58 -52.5t13 -37.5q0 -31 -28 -60q-12 -12 -35 -24t-47.5 -19.5t-49 -8.5t-40.5 9q-45 25 -46 70z" />
<glyph unicode="&#x3c;" horiz-adv-x="897" d="M39 424q0 43 20 74q27 39 75 64.5t83 60.5q66 63 131 125.5t133 121.5q27 25 50.5 54.5t46 60.5t45 60.5t49.5 54.5q33 29 69 28q33 0 55.5 -22.5t16.5 -69.5q-6 -49 -40 -82.5t-68 -68.5l-73 -73l-73 -73t-69.5 -62.5t-79.5 -72.5q-25 -25 -58 -53.5t-53 -58.5 q-12 -20 -7 -36t17.5 -29t29.5 -23.5t32 -18.5q37 -23 76.5 -57.5t74.5 -59.5q41 -27 82 -59.5t78 -67.5q16 -16 39.5 -36.5t45 -44t37 -49t15.5 -50.5q0 -29 -24 -55q-12 -12 -38 -21.5t-42 -5.5q-18 4 -34.5 22.5t-33.5 32.5q-41 35 -74.5 70t-74.5 68q-53 45 -105.5 89 t-109.5 81q-61 39 -121 61q-23 10 -49.5 15.5t-42.5 21.5q-16 14 -23.5 36.5t-7.5 47.5z" />
<glyph unicode="=" horiz-adv-x="892" d="M55 227q12 -27 39 -45t56 -14q35 6 72.5 6t72.5 8q41 10 82 16.5t82 10.5q53 6 106 14t105 21q41 10 84 23.5t77 37.5q23 18 20 48t-28 46q-23 14 -57.5 13.5t-60.5 -4.5q-37 -4 -74 -8.5t-74 -8.5q-47 -6 -110.5 -13t-129 -17.5t-124 -22.5t-93.5 -29q-25 -10 -42 -30.5 t-3 -51.5zM74 590q-10 39 24.5 64.5t81.5 29.5l115 12q61 10 113.5 21.5t101.5 13.5q45 0 88 10.5t90 8.5h37.5t38 -3.5t33 -11.5t22.5 -26q8 -23 3 -39.5t-17 -28.5t-30.5 -22.5t-35.5 -18.5q-41 -20 -87 -30.5t-92 -14.5t-93 -8t-90 -12q-29 -6 -75 -14.5t-91 -8.5 q-47 0 -86 15.5t-51 62.5z" />
<glyph unicode="&#x3e;" horiz-adv-x="886" d="M66 1047q0 31 24 55q12 12 37 20t43 4t34.5 -21.5t33.5 -31.5q39 -35 72.5 -69.5t74.5 -69.5q53 -43 105.5 -87t111.5 -81q29 -18 58.5 -34.5t62.5 -29.5q23 -8 48.5 -13t43.5 -21q31 -31 31 -84q0 -43 -21 -74q-14 -18 -33.5 -34.5t-42 -31t-44 -29t-39.5 -30.5 q-66 -63 -130.5 -126t-132.5 -122q-55 -49 -97 -114.5t-95 -114.5q-29 -29 -70 -29q-33 0 -55.5 22.5t-15.5 67.5q6 51 40.5 85t69.5 69l146 145q33 35 67.5 62.5t81.5 72.5q25 25 57.5 53.5t51.5 59.5q12 18 8 34.5t-16.5 30t-30 23.5t-31.5 19q-37 23 -78 57.5t-76 56.5 q-41 29 -81.5 60.5t-77.5 66.5q-16 14 -39 36t-44.5 45.5t-36.5 50t-15 51.5z" />
<glyph unicode="?" horiz-adv-x="897" d="M92 774q0 29 10.5 61.5t20.5 65.5q12 33 35.5 58.5t54.5 46t62.5 37t58.5 28.5q59 27 110.5 40t97.5 11t91 -18.5t94 -48.5q57 -35 90 -107q31 -59 3.5 -117.5t-79 -109.5t-109.5 -92t-89 -66q-23 -16 -41.5 -28.5t-38.5 -24.5q-23 -14 -45.5 -28.5t-50.5 -37.5 q-29 -20 -56 -51q-23 -23 -48 -47t-58 -24q-20 0 -41 9t-31 21q-8 12 -4 37q6 20 23.5 45t37 48.5t39 42t31.5 26.5q23 16 43.5 30.5t40.5 30.5q55 39 108.5 80t108.5 96q12 14 31.5 31t32 34t13.5 31.5t-22 24.5q-27 12 -53 23.5t-55 11.5q-66 0 -131.5 -25.5t-106.5 -66.5 q-25 -23 -24 -57q-4 -37 -33 -64q-27 -27 -59 -26q-23 0 -39 14q-23 16 -23 55zM117 94q-16 -45 2 -86t71 -55q35 -10 73 3t65.5 38.5t38 59.5t-12.5 67q-18 25 -54 34t-73 6t-68.5 -19.5t-41.5 -47.5z" />
<glyph unicode="@" horiz-adv-x="1396" d="M45 297q0 111 28.5 220.5t73.5 191.5q72 129 176.5 228t235.5 163q70 33 156 56.5t172 23.5q66 0 125 -17.5t108 -58.5q92 -80 144 -189q29 -61 51.5 -131.5t32.5 -140.5q4 -31 6 -61.5t2 -61.5q0 -70 -14.5 -134t-55.5 -124q-47 -66 -130 -95.5t-161 -19.5 q-35 4 -72.5 21.5t-66.5 42.5q-16 14 -32.5 30.5t-39.5 10.5q-20 -6 -40.5 -28.5t-41.5 -33.5q-37 -20 -77.5 -33.5t-83.5 -13.5q-33 0 -58 9q-63 16 -88.5 68t-25.5 116q0 39 8 78t20 71q25 66 69 130.5t101.5 114.5t125 81t141.5 31q29 0 59 -6q55 -10 88 -49t29 -99 q0 -27 -18.5 -63.5t-39 -77.5t-38 -82t-17.5 -78q0 -29 16.5 -53.5t57.5 -38.5t78.5 -8t68.5 27.5t53.5 53t32.5 68.5q4 20 4 46t-3 53.5t-8 54t-7 47.5q-6 41 -21.5 98.5t-42 111.5t-62.5 98t-81 56q-29 10 -57.5 13.5t-57.5 3.5q-90 0 -196 -39q-104 -37 -199.5 -118 t-161.5 -175q-29 -39 -45 -88t-33 -94q-16 -49 -24 -97.5t-4 -101.5q4 -47 14 -98t31 -94q23 -47 65.5 -75t92.5 -40q84 -23 153 -23q96 0 191 41q16 6 40.5 22.5t50 31t51.5 23.5t44 1t26.5 -21.5t8.5 -29.5q0 -23 -11.5 -45.5t-21.5 -38.5q-23 -29 -63.5 -53.5t-90 -42 t-97.5 -26.5t-83 -9q-23 0 -43 -1t-39 -1q-59 0 -108 8t-123 37q-68 27 -116 71t-76.5 100t-42 121.5t-13.5 133.5zM514 360q4 -31 24.5 -48t49.5 -15q23 0 42 13.5t38 27.5q14 12 39.5 28.5t35.5 32.5q8 16 2 34t-4 34q2 27 16.5 50.5t30.5 43.5q8 8 21.5 23.5t25 32 t16.5 34t-3 31.5t-23.5 15t-34 -3t-35 -12t-26.5 -14q-35 -20 -62.5 -45t-56.5 -54q-39 -39 -71.5 -94t-24.5 -115z" />
<glyph unicode="A" horiz-adv-x="1021" d="M39 83q-1 17 -1 33t1 31q12 117 52 220.5t91 207.5q59 123 150.5 229.5t191.5 194.5q29 27 75 50.5t91 23.5q49 0 78 -37q25 -33 32 -56.5t7 -49.5q0 -16 -1 -32.5t-1 -39.5q0 -20 4 -49t9 -60.5t11.5 -60.5t10.5 -49q4 -31 9 -60.5t25 -56.5q14 -23 40 -33t36 -34 q12 -31 -3 -52.5t-25 -46.5q-10 -27 -4 -53t10 -51q6 -27 17 -56.5t22.5 -60.5t16.5 -61q2 -13 2 -26q0 -16 -3 -32q-10 -29 -42 -37t-56 3q-25 10 -41.5 32.5t-26.5 50t-18 56.5t-17 51q-8 25 -13 52.5t-24 43.5q-23 18 -46 24.5t-52 8.5q-14 1 -29 1q-52 0 -110 -12 q-74 -14 -139 -38q-25 -8 -54.5 -17.5t-55.5 -23.5t-44 -35.5t-20 -54.5q-2 -20 2 -48t4 -57q-1 -33 -13 -54q-10 -18 -39 -18q-6 0 -12 1q-35 4 -55.5 24.5t-30.5 50t-12 63.5zM334 487q-1 -6 -1 -11q-1 -18 17 -22q11 -2 24 -2q14 0 30 2q32 5 64 15t44 12q35 6 66.5 11.5 t66.5 9.5q16 2 31.5 4t21.5 18q2 5 2 10q0 10 -4 20q-6 18 -8 26q-10 47 -15 68.5t-14 56.5q-2 10 -5 24t-7 28.5t-10 26t-16 17.5q-8 3 -17 3q-12 0 -26 -6q-25 -10 -50.5 -28t-47 -38.5t-31.5 -33.5q-20 -25 -38 -53.5t-32 -56.5q-12 -27 -26.5 -49.5t-18.5 -51.5z" />
<glyph unicode="B" horiz-adv-x="1175" d="M63 774q-6 12 -6 26q1 18 11 36q18 32 41 49q59 47 134.5 76.5t145.5 52.5q16 4 51 13t72 13q94 24 190 38q71 11 140 10q24 0 47 -1q51 -4 108.5 -15t96.5 -46q43 -37 43 -88q0 -31 -12.5 -61.5t-32 -59.5t-42 -54.5t-42.5 -45.5q-18 -20 -30.5 -32.5l-22 -22 t-17.5 -16.5t-20 -15q-4 -4 -15.5 -11.5t-24 -16.5t-20.5 -17t-6 -13q10 -20 36 -21t38 -5q51 -8 84.5 -29.5t51 -52.5t21.5 -68q2 -18 2 -37t-2 -38q-10 -94 -62 -160t-125 -109t-153.5 -68.5t-148.5 -39.5q-63 -14 -125 -15q-47 0 -93 7.5t-95 21.5q-47 12 -92.5 38 t-59.5 79q-2 8 -3 17t-3 18q2 57 3 101t2 80t4 67.5t9 68.5q12 63 17.5 123.5t15.5 144.5q4 25 -6 41q-8 14 -22.5 15.5t-30 1.5t-29.5 2t-23 18zM301 229q2 -8 2 -29.5t8 -25.5q35 -31 78 -44t92 -13q72 0 149 22t138 51q14 6 42 22.5t49.5 38t29.5 45t-15 44.5 q-29 29 -77.5 41t-94.5 22q-23 6 -45 6.5t-47 4.5q-20 4 -38.5 6t-47.5 0q-45 -2 -89 -10.5t-79 -28.5q-41 -23 -50 -67q-6 -30 -6 -59q0 -13 1 -26zM319 610q0 -25 15 -30q25 -4 43 -8q8 -2 19 -1q12 0 28 2q35 6 63 19q16 6 41 14t41 15q33 14 54.5 24t41 20.5t40 22.5 t53.5 29q6 4 16 10t23 14q45 33 73 64q8 10 15.5 20.5t9.5 19.5q1 4 1 7q0 5 -2 10q-3 8 -17 17q-23 10 -55 17q-24 5 -45 5h-11q-29 -2 -63.5 -6t-63.5 -8q-35 -4 -65.5 -11.5t-61.5 -13.5q-25 -6 -51.5 -12t-51 -18.5t-44 -32t-27.5 -47.5q-10 -43 -14.5 -71t-4.5 -71z " />
<glyph unicode="C" horiz-adv-x="1134" d="M43 274q0 127 35 248t94 211q31 45 74 94.5t97 94.5t115.5 80.5t129.5 54.5q39 10 74.5 15t66.5 5q84 0 137 -33q18 -12 43 -30.5t49.5 -40t45 -48t32.5 -53.5q9 -46 9 -85q0 -22 -3 -43q-8 -56 -53 -66q-4 -2 -12 -2q-25 0 -35 18.5t-16 38.5t-15 31q-20 33 -56 59.5 t-67 42.5q-35 20 -96 21q-49 0 -86 -13q-104 -35 -187 -110.5t-136 -181.5q-23 -45 -44.5 -117t-21.5 -141q0 -39 10 -76q18 -59 68 -86q74 -37 166 -37q72 0 149.5 22.5t149.5 63.5q25 14 42 24.5t34 20.5q14 10 30.5 20.5t40.5 24.5q29 16 66 30.5t65 14.5q53 0 54 -51v-6 q0 -35 -20 -53q-22 -20 -52 -41q-10 -6 -21.5 -14.5t-23.5 -18.5q-31 -25 -54.5 -40.5t-52.5 -31.5q-10 -8 -22 -14t-27 -17q-35 -23 -82 -44t-100 -37.5t-108.5 -26.5t-106.5 -10q-74 0 -121 20q-121 47 -189.5 131t-68.5 182z" />
<glyph unicode="D" horiz-adv-x="1222" d="M43 874q0 39 33 72q18 16 44.5 25.5t49.5 15.5q29 8 57.5 14.5t57.5 14.5q45 10 88 23.5t88 19.5q18 0 38.5 3t46 6l59.5 7t81 6q23 2 42.5 3t39.5 1q39 0 76 -2q18 -1 37 -1t39 1q24 1 47 1q35 0 69 -2q58 -3 111 -38q29 -16 39 -41.5t10 -54.5q0 -27 -6 -52.5 t-14 -51.5q-20 -66 -53 -129.5t-74 -118.5q-53 -76 -107.5 -145.5t-120.5 -131.5q-82 -78 -169 -148.5t-181 -125.5q-29 -16 -58.5 -35.5t-60 -37t-62.5 -29t-63 -11.5q-27 0 -40 17.5t-18 42t-5 53.5t2 51q4 80 9 161t11 161q6 72 18.5 145.5t16.5 145.5q2 29 2 54t-30 30 q-23 4 -47.5 1t-47.5 5q-29 10 -42 30.5t-13 44.5zM344 301q0 -18 1 -37.5t6 -33t17 -18.5q4 -1 9 -1q11 0 29 8q70 33 129 85t118 102q59 47 109.5 103.5t97.5 115.5q12 14 38 45.5t48.5 67.5t32.5 68q4 11 4 21q0 17 -12 27q-23 20 -62 25.5t-67 5.5q-16 2 -30.5 2h-31.5 q-27 0 -52.5 -1t-47.5 -3q-29 -4 -69 -4t-81 -5.5t-76.5 -20.5t-54.5 -46q-15 -27 -15 -61v-28q0 -23 -1 -44q-4 -55 -13.5 -110.5t-15.5 -110.5q-4 -39 -8 -76q-3 -25 -3 -50q0 -13 1 -26z" />
<glyph unicode="E" horiz-adv-x="1083" d="M55 100q4 20 5 40t3 40q2 23 3.5 43.5t5.5 40.5q12 70 16 136.5t8 131.5q0 14 2 41t5 54.5t5.5 54.5t2.5 43q2 8 2 35q2 27 4 62.5t9 71.5t19.5 67.5t32.5 52.5q24 28 60 28h2q27 2 51 0t49 -6q31 -4 55.5 -4t50.5 2q23 0 64 4t85 10.5t84 12.5t64 10l45 8q6 2 21.5 3 t36.5 3q25 2 57.5 2t62 -5t52 -14t29.5 -28q2 -6 2 -13q0 -24 -27 -52q-25 -27 -77 -39t-97 -21q-10 -2 -20.5 -3t-16.5 -3q-20 -4 -58 -10t-79 -12t-80 -11.5t-62 -9.5q-55 -10 -110 -12q-23 -4 -45 -5t-47 -5q-10 -2 -23.5 -25.5t-25.5 -73.5q-14 -59 -16.5 -101t7.5 -46 q23 -8 43.5 -14t46.5 -4l33 4q41 4 90.5 8t83.5 14q8 2 36 5t62.5 7.5t67.5 7.5t51 5q10 0 29 1t37 0t34.5 -3t26.5 -6q16 -8 23.5 -25.5t3.5 -38.5q-10 -49 -55 -65q-29 -10 -74 -19.5t-92 -17.5t-88 -14.5t-62 -10.5q-16 -4 -28.5 -6t-22.5 -4q-14 -4 -32.5 -5t-41.5 -3 q-29 -2 -60.5 -4t-61 -10.5t-52 -21.5t-30.5 -36q-4 -12 -7.5 -29.5t-5.5 -34t-2 -28.5v-17q0 -4 1 -11t1 -19q0 -39 13.5 -52.5t50.5 -17.5q16 -2 31.5 -2h29.5q23 2 43.5 6t42.5 8q16 4 37 8.5t47 8.5q8 2 18.5 4t20.5 6q6 2 35 5t69 8t85 10.5t84.5 8.5t67.5 6t34 3 q16 2 26.5 -1t20.5 -7q30 -15 30 -43q0 -5 -1 -10q-4 -20 -20.5 -38t-41.5 -28l-51 -20q-31 -12 -103.5 -26.5t-152.5 -28t-152.5 -24t-105.5 -16.5q-16 -4 -34.5 -8t-39.5 -8q-29 -6 -56.5 -12t-55.5 -11h-2q-29 6 -48.5 28t-39.5 40q-23 23 -35.5 47.5t-18.5 52.5z" />
<glyph unicode="F" horiz-adv-x="993" d="M80 150q0 53 5 106t5 88l10 217q4 45 10.5 91t16.5 91q8 47 19.5 91.5t15.5 91.5t25.5 68.5t68.5 31.5q86 18 178 19.5t180 5.5q45 4 89.5 7t91.5 3q14 0 35.5 -1t44 -3t43 -8.5t30.5 -14.5q18 -16 20 -34q1 -4 1 -8q1 -12 -5 -24q-8 -16 -24 -28t-35 -14 q-43 -6 -86 -10.5t-90 -8.5q-92 -10 -181 -25.5t-177 -37.5q-53 -14 -65.5 -38t-16.5 -77q-2 -16 -4 -34.5t-2 -39.5q0 -25 6 -47t22 -35q12 -10 29.5 -14t36.5 -4q29 0 55.5 4t48.5 6q45 4 88 7t88 8q23 2 55.5 5t63.5 3q39 0 58 -8q31 -14 30 -50q0 -23 -11 -42t-30 -29 q-41 -23 -85 -28t-87 -11q-47 -8 -91 -16.5t-89 -18.5q-43 -10 -89 -13t-87 -20q-23 -8 -36 -22.5t-19.5 -32.5t-7.5 -38.5t-1 -43.5q1 -45 15 -88q11 -34 11 -66q0 -9 -1 -18q-4 -41 -34 -69q-19 -17 -41 -17q-13 0 -27 6q-45 18 -59.5 71.5t-14.5 115.5z" />
<glyph unicode="G" horiz-adv-x="1118" d="M43 346q0 20 1 40t3 38q10 117 53 222.5t121 191.5q68 74 156 132t186 87q45 14 86 19q23 3 47 3q20 0 41 -2q33 -4 77 -12t89 -45q8 -10 15.5 -17.5l15.5 -15.5q23 -23 37 -51.5t4 -61.5q-10 -35 -44 -47q-15 -5 -29 -5q-19 0 -38 9q-27 12 -47 35t-51 33q-35 10 -59 10 q-20 0 -40 -4t-40 -10q-98 -35 -169 -91t-132 -142q-53 -72 -83 -157q-21 -61 -21 -125q0 -26 3 -52q4 -33 12.5 -75t32.5 -65q33 -31 74 -50t82 -19q18 0 36.5 -1t37.5 -1q41 0 75 8q35 10 78 24.5t76 30.5q20 10 53 36t60.5 58.5t41.5 67.5q7 17 7 32q0 17 -8 32 q-12 23 -38 30.5t-57 7.5q-43 0 -88 -10t-69 -18q-10 -4 -30.5 -12.5t-44.5 -17.5t-49.5 -15t-45.5 -6q-23 0 -39 10t-21 37q-2 16 6.5 38.5t20.5 45t25.5 41t25.5 24.5q41 27 88 36t92 21q29 6 55.5 10.5t55.5 4.5q53 0 104.5 -14.5t96.5 -47.5q47 -33 69.5 -89t22.5 -115 q-1 -56 -19 -105q-23 -61 -71.5 -110.5t-108 -88t-125 -65.5t-123.5 -43q-31 -10 -61.5 -13t-62.5 -3q-86 0 -170 27.5t-154 78.5q-45 35 -65.5 68.5t-39.5 87.5q-10 35 -15 71.5t-5 73.5z" />
<glyph unicode="H" horiz-adv-x="1150" d="M84 170q0 57 4 119.5t11 122t15.5 113t14.5 96.5q4 16 4 29.5v29.5q0 33 -2 65.5t2 63.5q2 25 3 65.5t10 76.5q10 37 32 57q13 12 34 12q15 0 34 -6q20 -6 32.5 -20.5t16.5 -34t4 -40v-38.5q0 -20 -2 -32.5t-3 -22t-3 -21.5t-4 -33q-1 -29 -1 -58v-29q1 -44 9 -85 q10 -49 43 -56q26 -5 57 -5h19q31 3 59 3q14 0 27 -1h16q32 0 68 6q41 8 82 15t82 13q20 2 39.5 4.5t36 7.5t27.5 16t17 34q10 41 15.5 86t5.5 90q0 12 2 41t8 62.5t15.5 67.5t23.5 55.5t34 28.5q5 2 12 2q16 0 36 -15q18 -12 23.5 -35t5.5 -45q0 -18 -1 -36.5t-1 -35.5 q1 -27 1 -56v-29q-1 -44 -1 -89q0 -86 -3.5 -170t-7.5 -170q-2 -33 -3 -64.5t-1 -64.5q0 -49 4 -97t21 -95q9 -29 9 -55q0 -8 -1 -16q-4 -32 -53 -44q-11 -3 -22 -3q-28 0 -46 20q-26 28 -43 63q-16 39 -21.5 78t-5.5 84q0 23 4.5 53.5t4.5 58.5q0 18 -2 34.5t-11 27.5 q-10 14 -25.5 19t-33.5 5q-25 0 -49.5 -5t-42.5 -9q-43 -6 -86 -8t-84 -13q-41 -8 -79 -14t-79 -16q-18 -6 -39.5 -7.5t-40 -5.5t-34 -14t-21.5 -33q-12 -39 -15 -85q-1 -15 -1 -30q0 -30 4 -57q4 -18 10 -40.5t6 -45.5q0 -16 -5 -29.5t-22 -23.5q-13 -8 -28 -8h-7 q-18 2 -35.5 11t-30.5 23.5t-19 28.5q-16 35 -22.5 77t-6.5 81z" />
<glyph unicode="I" horiz-adv-x="1081" d="M69 35q0 19 19 37q14 12 36.5 19t45.5 12.5t46.5 8.5t41.5 7q33 10 74 19t69 28q27 14 37.5 42t12.5 59.5t0 63t0 54.5q7 66 7 127q0 24 -1 48q-4 83 -4 167q0 18 1 39.5t-3.5 42t-15.5 35t-36 16.5q-14 2 -27.5 1t-27.5 -1q-8 0 -15 -1t-16 -1q-16 -2 -37.5 -4t-44.5 -2 q-29 0 -56.5 6t-41.5 29q-18 29 -11 49t25.5 35.5t43 25t42.5 13.5q41 10 84 13t86 11q49 6 83 8t56.5 3.5t37 1.5t26.5 2q25 4 47.5 11t46.5 11q47 8 96.5 15.5t96.5 7.5q20 0 44 -5.5t41 -17.5q17 -13 22 -31q1 -4 1 -9q0 -16 -12 -36t-38.5 -33.5t-58.5 -21.5t-63.5 -13 t-54.5 -9q-25 -4 -41 -9q-41 -12 -57.5 -40.5t-26.5 -69.5q-8 -35 -17 -69t-9 -66q-6 -96 -8.5 -157t-3.5 -98.5t-2 -59t-1 -40.5v-16t2 -14q2 -16 5 -36t20 -30q22 -15 53 -15q8 0 14 1q40 4 82.5 13t82.5 13q7 1 14 1q31 0 55 -15q20 -12 24.5 -31.5t-2 -39t-20.5 -37 t-31 -23.5q-55 -25 -116.5 -35t-120.5 -22q-78 -16 -157 -35t-157 -29q-47 -4 -102 -11q-23 -3 -43 -3q-29 0 -55 6q-18 4 -39 16.5t-34 29.5q-14 18 -14 38z" />
<glyph unicode="J" horiz-adv-x="1140" d="M45 246q0 45 13.5 85t58.5 50q35 6 53 -25.5t31 -70.5q4 -20 9 -38t13 -34q4 -6 5 -11t5 -9q29 -51 76 -68q58 -36 128 -36q19 0 38 3q96 12 179 75.5t124 156.5q23 45 32 100t9 115q0 59 -8 106q-12 49 -35 86q-27 45 -68.5 60.5t-89.5 15.5q-45 0 -89 -8t-80 -15 q-47 -6 -91 -17q-16 -4 -33 -4q-28 0 -57 11q-16 6 -30.5 25.5t-22.5 43t-7 45t17 34.5l27 22q117 8 235.5 26.5t235.5 41.5q37 6 62.5 12t50 12t50 14.5t60.5 20.5q23 6 52 21q26 12 46 12h5q31 -2 44 -21.5t13 -48.5q0 -25 -9.5 -49t-25.5 -41q-18 -16 -27.5 -20 t-16.5 -6.5t-15 -5.5t-27 -17q-27 -18 -29 -54v-11q0 -31 7 -64q0 -4 5 -35t11 -67.5t11 -72.5t5 -50q0 -117 -33.5 -226.5t-107.5 -187.5q-88 -92 -205 -152.5t-239 -60.5q-119 0 -224 66q-59 39 -95 112.5t-46 153.5z" />
<glyph unicode="K" horiz-adv-x="999" d="M80 84l6 66q0 141 17.5 278t31.5 277q5 51 13 100q6 33 5 68q0 16 -1 32q-2 16 -7.5 41t-5.5 47q0 18 7.5 32.5t25.5 21.5q20 8 40.5 -1.5t37 -27t29 -39t16.5 -35.5q8 -35 8 -82q0 -23 -1 -42t-1 -40q-2 -16 -3 -38.5t-1 -49.5q0 -31 3 -58.5t14.5 -44t31 -17.5t49.5 24 q80 63 147.5 140t139.5 149l127 127q23 23 61 42q21 10 41 10q17 0 33 -7q18 -9 24 -27q3 -10 3 -21q0 -9 -2 -17q-4 -20 -13.5 -38t-17.5 -30q-27 -37 -62.5 -70t-68.5 -66q-33 -31 -63.5 -62.5t-61.5 -66.5q-14 -14 -30.5 -35.5t-32 -46t-27.5 -49t-14 -45.5 q-4 -25 15 -57.5t51 -70.5t69 -78.5t68.5 -80.5t53 -77t21.5 -68q0 -33 -29 -53q-23 -14 -41 -13t-34.5 11t-30.5 25.5t-27 29.5q-33 35 -66.5 71t-68.5 73t-85 76.5t-103 39.5q-47 0 -86 -47q-20 -27 -33.5 -65.5t-18.5 -73.5q-2 -16 0.5 -35.5t3.5 -40t0 -39t-10 -33.5 q-9 -14 -25 -19q-10 -3 -21 -3q-7 0 -13 1q-18 3 -36.5 11t-27.5 19q-10 12 -14 29.5t-6 33.5q-2 10 -3 17.5t-1 17.5z" />
<glyph unicode="L" horiz-adv-x="831" d="M72 86q0 8 -1 16q0 23 3 48q0 63 5 129.5t13 138.5q4 47 7 93t3 93q0 45 4.5 90t10.5 90q2 12 3 34t1 43.5t1 42t3 32.5q4 41 11 71.5t42 49.5q25 10 39 10q47 0 64 -51q10 -29 13 -62.5t3 -70.5q0 -47 -4 -96.5t-12 -86.5q-12 -70 -19.5 -142.5t-11.5 -133.5l-14 -188 q2 -27 8 -51.5t28 -32.5q35 -14 84 -15h16.5t39.5 4q25 2 51 5.5t49 7.5q8 2 26.5 5t39 7t39 7t26.5 5q16 4 31.5 6t32.5 6q10 2 20.5 3.5t20.5 1.5q53 0 51 -56q-2 -23 -16.5 -38t-34 -26.5t-42 -18.5t-40.5 -15q-10 -4 -30 -10t-42.5 -12.5t-44 -12.5t-31.5 -8 q-35 -10 -69.5 -15.5t-69.5 -11.5q-25 -4 -49.5 -8t-48.5 -8q-23 -2 -43 -3h-6q-18 0 -35 5q-27 8 -51.5 31.5t-45.5 44.5q-26 23 -28 53z" />
<glyph unicode="M" horiz-adv-x="1472" d="M53 63q-3 27 -3 53q0 59 16 115q22 80 45 162q27 98 69.5 196.5t98.5 184.5q23 35 50 75t61 73.5t73 58.5t82 31q41 6 53 -22.5t16 -65.5q4 -35 7.5 -70t13.5 -68q10 -35 18.5 -71.5t20.5 -69.5q2 -12 9 -26.5t16.5 -25.5t19.5 -16.5t20 3.5q59 51 103.5 118.5 t91.5 126.5q29 35 53.5 71t52.5 67q14 16 27.5 36.5t32.5 32.5q16 10 36.5 21.5t39.5 15.5q8 2 16 2q26 1 48 -19q30 -26 40 -55q12 -36 12 -73v-10q-1 -14 -1 -28q0 -28 3 -57q4 -59 7.5 -117.5t17.5 -129.5l18 -84q10 -47 21.5 -97.5t23 -95.5t19.5 -81t14 -52 q9 -30 17 -58q3 -12 4 -25q0 -17 -6 -36q-6 -16 -20.5 -25.5t-31 -12.5t-34 1t-29.5 15q-25 18 -36 36.5t-24 47.5q-33 76 -42 155.5t-29 157.5q-10 41 -17.5 80t-17.5 80q-4 14 -8 36.5t-15 34.5q-12 16 -23 22.5t-28 -3.5q-47 -35 -89 -88t-75.5 -120t-58.5 -142.5 t-35 -155.5q-4 -33 -6.5 -75t-32.5 -66q-29 -25 -53.5 -15.5t-42.5 37.5q-20 29 -31.5 64t-20.5 71.5t-16.5 73.5t-19.5 68q-23 61 -39 116.5t-39 114.5q-10 29 -21.5 51.5t-48.5 18.5q-35 -4 -54 -30t-36 -52q-74 -125 -102 -268q-8 -37 -14 -71q-4 -23 -5 -50q0 -12 1 -25 q1 -12 1 -24q-1 -21 -3 -41q-4 -32 -6 -66q-6 -43 -36 -53q-11 -4 -25 -4q-20 0 -44 10q-39 14 -51.5 42t-18.5 64z" />
<glyph unicode="N" horiz-adv-x="1091" d="M55 197q2 102 19.5 204.5t27.5 204.5q6 75 6 152v38v30q0 81 9 161q4 41 21.5 58.5t41.5 17.5q53 0 99 -55q8 -10 17 -32t19.5 -44.5t20.5 -44t20 -33.5q29 -33 54.5 -55.5t50 -43t50.5 -43t56 -55.5q29 -35 63 -69.5t60 -71.5q8 -12 23.5 -33.5t31 -37t29.5 -16.5t23 28 q14 61 20 104t8 82q0 20 6.5 51t12.5 62.5t12 62.5t6 53q4 47 5 82t18 76q6 14 19 30q14 16 29 26q12 8 26 8h7q18 -2 33 -23q10 -12 15.5 -33.5t8.5 -46t4 -48t1 -40.5q0 -29 -9 -69.5t-18 -81.5q-8 -33 -15 -67t-11 -69q-10 -66 -17.5 -134t-11.5 -138q-1 -22 -1 -44 t1 -44q2 -43 6 -86q4 -41 13.5 -80t11.5 -80q0 -25 -13.5 -45t-33 -30.5t-42 -10.5t-40.5 15q-23 18 -43.5 37.5t-34.5 46.5q-16 31 -33.5 58.5t-38.5 55.5q-18 27 -30.5 46.5t-24.5 42t-29.5 53t-46.5 79.5q-10 18 -28.5 41t-38 46.5t-40 44l-34.5 34.5q-23 20 -48.5 43 t-53.5 33q-27 8 -42.5 0t-23.5 -27.5t-10 -47t-2 -54.5q0 -70 -7.5 -139.5t-7.5 -147.5q0 -37 3.5 -71.5t11.5 -67.5q2 -14 3 -33.5t-3 -37t-16.5 -31t-34.5 -15.5h-9q-35 0 -59 27q-27 31 -42 74t-22.5 90t-7.5 78z" />
<glyph unicode="O" horiz-adv-x="1202" d="M43 319q0 68 16.5 135.5t43 133t61.5 124t72 107.5q57 74 131.5 124t160.5 83q16 6 45 15.5t63 17.5t69.5 14t66.5 6q27 0 48.5 -5t33.5 -17q49 -10 85 -39t52 -49q84 -90 128 -204t44 -233q0 -117 -47 -224t-147 -185q-25 -18 -47.5 -40t-48 -40t-56.5 -34.5t-72 -24.5 q-63 -14 -127 -30q-52 -13 -105 -14q-13 0 -26 1q-59 2 -120.5 11t-115.5 31.5t-100.5 63.5t-74.5 109q-33 74 -33 163zM227 358q0 -47 9 -82q23 -88 84 -123.5t143 -35.5q68 0 142.5 20.5t142 54t121.5 75.5t81 83t38 88t11 94q0 59 -18 119q-12 39 -22.5 74t-38.5 63 q-12 12 -26.5 24.5t-31.5 25.5q-6 4 -30.5 20t-43.5 33q-63 0 -121.5 -2t-117.5 -31q-47 -23 -94 -59.5t-84 -77.5q-61 -70 -102.5 -167t-41.5 -196z" />
<glyph unicode="P" horiz-adv-x="1118" d="M60 903q0 34 18 55q16 18 52 27t58 14q35 6 71 12.5t73 10.5q66 6 97.5 9t51 4t35.5 2t51 1t96.5 1t172.5 3q25 -2 54.5 -4t59 -6t55.5 -12.5t42 -20.5q51 -40 52 -101q0 -4 -1 -9q-2 -33 -17.5 -65.5t-37 -63.5t-47 -57.5t-50.5 -47.5q-70 -55 -140.5 -98t-148.5 -84 q-14 -8 -28.5 -15t-28.5 -18q-39 -20 -77 -36.5t-74 -32.5q-33 -14 -64 -27.5t-61 -30.5q-23 -10 -34 -30.5t-18 -49.5l-8 -149q0 -20 -2 -46t-14 -46q-12 -16 -23.5 -22.5t-21.5 -6.5q-18 0 -33.5 15.5t-26.5 31.5q-16 31 -23 70t-9 82q-1 29 -1 58v29q1 44 1 85t2 84t8 86 q2 25 11 63.5t17.5 80.5t12.5 80t0 60q-4 18 -12.5 25.5t-18.5 9.5t-22.5 4t-24.5 15q-24 21 -24 61zM294 570v-7q0 -13 3 -25q4 -16 20 -22q12 -6 27 -6q14 0 29.5 5t34.5 13q96 41 201 95t177 122q26 23 54 53q24 26 25 46q0 3 -1 6q-2 16 -28 27q-16 6 -41 6q-6 0 -38 -1 t-66 -2t-59.5 -2t-23.5 -1q-16 -2 -33.5 -3.5t-33.5 -1.5q-47 -2 -95.5 -7t-89.5 -23q-12 -6 -24.5 -14.5t-12.5 -26.5q-6 -47 -10 -87t-6 -81q0 -12 -4 -29.5t-5 -33.5z" />
<glyph unicode="Q" horiz-adv-x="1191" d="M55 344v33.5t4 34.5q10 74 25.5 138t56.5 130q41 61 90.5 117.5t102.5 107.5q51 47 106.5 77t120.5 48q39 10 96.5 29.5t108.5 19.5q33 0 57 -12q20 -4 40 -13.5t30 -13.5q14 -10 28.5 -20t26.5 -21q53 -51 88 -112q47 -86 78 -176t31 -187q0 -37 -5 -73.5t-18 -73.5 q-16 -55 -42.5 -108.5t-63.5 -98.5q-10 -14 -23.5 -25.5t-29.5 -27.5t-18.5 -32.5t3.5 -32t17.5 -31t21.5 -29.5t20.5 -31.5t17.5 -36t9 -37t-4 -37.5q-10 -27 -31.5 -39t-44.5 -12q-35 0 -57 21q-16 14 -25.5 32.5t-19.5 36.5q-12 18 -22.5 38t-22.5 36q-10 14 -22.5 24.5 t-28.5 8.5q-18 0 -39 -10q-51 -23 -99.5 -34t-99.5 -11q-43 0 -82 8q-53 10 -104 23.5t-99 39.5q-92 51 -135 140.5t-43 191.5zM223 295q6 -41 32 -75t62.5 -58.5t79.5 -37.5t82 -13q37 0 77 7t68.5 22.5t38 37t-15.5 49.5q-16 16 -27.5 34t-25.5 36q-12 18 -26.5 37.5 t-23.5 39t-13.5 42t4.5 47.5q8 25 28.5 36t42.5 13q20 2 35.5 -10.5t30.5 -28.5q31 -41 54.5 -84t53.5 -84q23 -31 51 -31q18 0 38 10.5t38 22.5q23 29 40.5 66t29.5 71q12 39 12 84q0 59 -18.5 120t-44.5 108q-12 20 -39 45.5t-57.5 46t-64.5 35t-60 14.5q-33 0 -66 -6 t-53 -14q-49 -16 -96.5 -47t-86.5 -68q-43 -41 -78.5 -96.5t-61 -118t-37.5 -127.5q-6 -38 -6 -74q0 -26 3 -51z" />
<glyph unicode="R" horiz-adv-x="1185" d="M43 886q-2 4 -2 10q0 17 20 42q12 16 37 27.5t51.5 18.5t54 13.5t46.5 12.5q117 35 226.5 49t228.5 22q19 1 38 1q41 0 76 -6q51 -9 111 -19q53 -10 101 -25.5t85 -58.5q39 -45 39 -99q0 -37 -14.5 -73.5t-38 -70.5t-51 -62.5t-54.5 -49.5q-66 -53 -139.5 -102 t-150.5 -86q-16 -14 -32 -29.5t-16 -29.5q2 -18 14.5 -29.5t24.5 -26.5q18 -20 35 -40.5t35 -43.5t32.5 -45t33.5 -45q22 -23 30 -55q3 -14 4 -28q0 -19 -6 -38q-10 -33 -40 -50q-13 -7 -26 -7q-17 0 -34 12q-12 8 -22.5 22.5t-22.5 25.5q-16 14 -29.5 28.5t-28.5 28.5 q-45 43 -84.5 90t-87.5 86q-18 14 -54 19.5t-58 7.5q-16 0 -49 -19q-8 -4 -15.5 -11t-13.5 -13q-16 -20 -23.5 -46t-11.5 -53.5t-5 -55.5t-3 -52q-2 -29 -5 -50.5t-32 -37.5q-16 -8 -28 -8q-9 0 -17 4q-18 10 -33 34q-12 23 -21 51q-6 19 -6 49q0 13 1 29l18 226 q8 72 17.5 129t13.5 116q2 29 6 68t4 78q0 25 -3 47.5t-13 38.5t-36 26.5t-47.5 22.5t-29.5 30zM330 643q-2 -32 -2 -55q0 -28 3 -42q5 -26 25 -34q11 -4 22 -4q14 0 26 5q24 9 47 15q53 14 105.5 31.5t105.5 42.5q27 12 79 36t100 56q47 31 79 69q22 26 22 53q0 12 -4 24 q-49 35 -110.5 48t-127.5 13q-78 0 -147 -12q-41 -6 -87 -15.5t-81 -35.5q-14 -10 -24.5 -35t-16.5 -54.5t-9 -58z" />
<glyph unicode="S" horiz-adv-x="1114" d="M21 475q2 25 10 48.5t21.5 45t25.5 37.5q33 45 67.5 88t73.5 84q37 37 79 75t95 76t121 74.5t156 73.5q41 7 95 13q26 3 49 3q25 0 46 -3q29 -4 41 -21.5t12 -40.5q0 -18 -9 -36.5t-25 -30.5q-37 -25 -87.5 -32t-95.5 -22q-127 -39 -210 -101.5t-148 -133.5 q-14 -16 -16.5 -32.5t4.5 -27.5q2 -4 14 -4t28.5 1t32 4t25.5 3q47 4 96 8.5t96 6.5q23 2 40.5 2h33.5q29 0 55.5 -2t57.5 -8q41 -6 103.5 -13.5t101.5 -19.5q60 -23 72 -62q6 -19 5 -40q0 -22 -6 -46q-10 -43 -31.5 -89t-62.5 -91q-70 -74 -138.5 -140.5t-160.5 -117.5 q-41 -23 -80 -48.5t-86 -29.5h-9q-20 0 -37 6q-21 8 -37.5 22.5t-23.5 34t-3 44.5q4 20 18 32.5t33.5 21.5t40 15.5t39.5 16.5q45 23 89 48.5t87 51.5q39 23 72.5 58.5t62.5 70.5q24 31 24 52q0 14 -8 22q-24 24 -75 29q-25 2 -50.5 2h-50.5q-78 0 -152.5 -5.5t-148.5 -17.5 l-196 -31q-18 -4 -41 -7t-45 -3q-25 0 -46.5 8.5t-33.5 32.5q-10 17 -10 38v7z" />
<glyph unicode="T" horiz-adv-x="956" d="M18 868q0 18 6 34q6 18 16.5 33t22.5 23q29 16 74 18.5t76 6.5q53 7 109 21q43 10 85 11q13 0 25 -1q23 0 45.5 -1t44.5 -1q33 0 64.5 2t66.5 6q25 4 54.5 11t61.5 13q31 6 61 6h4q27 0 49 -8q29 -10 43 -29.5t14 -43.5q0 -45 -43 -70t-106.5 -33t-110.5 -14 q-29 -4 -60.5 -8t-56.5 -15q-29 -10 -37 -27.5t-12 -47.5q-16 -123 -32.5 -249t-16.5 -251q0 -16 2 -49t2 -72q0 -37 -4 -73.5t-16.5 -60.5t-36.5 -29q-4 -1 -8 -1q-21 0 -52 21q-39 27 -53 68.5t-14 93.5q0 61 12 125.5t20 115.5q10 70 25.5 145.5t15.5 147.5q0 37 -6 74 q-8 33 -28.5 44t-49.5 11q-37 0 -79.5 -9t-83.5 -9q-27 0 -48.5 7t-35.5 30q-9 13 -9 34z" />
<glyph unicode="U" horiz-adv-x="1130" d="M59 123q0 41 4.5 80t6.5 67q4 66 16.5 129t26.5 129q12 59 26.5 126t26.5 126q4 25 10 55.5t16.5 60.5t24.5 55.5t35 41.5q31 25 56.5 15.5t33.5 -54.5q2 -15 2 -30q0 -26 -6 -56q-10 -47 -14 -86q-8 -53 -14.5 -88t-18.5 -88q-2 -10 -7 -38.5t-11.5 -65.5t-12.5 -78 t-9 -78q-2 -28 -2 -50v-14q1 -28 7 -36q10 -12 27.5 -16.5t38 -2.5t40 8.5l31.5 10.5q35 10 81 29.5t81 31.5q66 27 135.5 60.5t124.5 83.5q43 39 54.5 99t13.5 116q4 63 7 126.5t3 127.5q0 35 12.5 71.5t40.5 59.5q32 24 51 24h2q29 0 38.5 -33.5t9.5 -76.5q0 -35 -3.5 -70 t-7.5 -53q-10 -59 -13 -121t-3 -123q0 -57 2 -113.5t6 -113.5q2 -43 5 -88t11 -86q6 -35 19.5 -69t17.5 -69q1 -6 1 -11q0 -30 -20 -54q-18 -22 -46 -23q-8 0 -17 2q-35 6 -59.5 29t-40.5 53q-6 14 -7 26.5t-5 29.5q-4 23 -4 46t-2 42q-4 25 -16.5 32t-31 3.5t-38 -11.5 t-33.5 -14q-45 -16 -88 -34.5t-88 -39.5q-49 -23 -102.5 -38t-102.5 -40q-35 -18 -67.5 -37.5t-67.5 -35.5q-14 -6 -29.5 -16.5t-31 -16.5t-31.5 -7h-3q-15 0 -28 9q-39 25 -51.5 71t-12.5 99z" />
<glyph unicode="V" horiz-adv-x="1009" d="M33 977q0 20 10 35.5t39 19.5q7 1 14 1q30 -1 52 -21q26 -26 46.5 -63.5t34 -78.5t25.5 -65q20 -49 40.5 -98.5t37.5 -100.5q16 -47 25.5 -94t19.5 -94q6 -25 13 -65t22.5 -74.5t39.5 -52.5q10 -8 23 -8q16 0 37 13q59 35 105.5 92.5t76.5 120.5q35 72 61.5 143.5 t41.5 151.5q6 35 10 70q3 23 3 47q0 12 -1 23q-2 29 -8 59.5t-4 58.5q2 25 14 51q11 25 37 25h4q35 -4 59.5 -26.5t38.5 -51.5q12 -27 18 -67q5 -34 4 -71v-13q-1 -43 -5.5 -84t-10.5 -68q-16 -66 -36.5 -127t-49.5 -119q-33 -61 -62.5 -123.5t-70.5 -119.5 q-35 -53 -73.5 -100.5t-90.5 -86.5q-29 -23 -61.5 -43t-67.5 -26q-12 -2 -23 -2q-17 0 -35 4q-28 6 -50 28q-25 23 -32 53.5t-13 61.5q-33 170 -88 340q-16 51 -26.5 102.5t-26.5 102.5q-4 12 -18.5 49t-29 77t-25.5 68.5t-9 22.5q-8 27 -21.5 60.5t-13.5 62.5z" />
<glyph unicode="W" horiz-adv-x="1456" d="M64 930q-1 9 -1.5 17.5t1.5 16.5q2 16 12 31q29 37 69 37q19 0 39 -8t30.5 -23.5t17 -35t9.5 -39t7 -35.5q18 -70 27.5 -162t17.5 -164q2 -20 3 -43.5t5 -48t12.5 -46t26.5 -36.5q8 6 23.5 21.5t31 34t28.5 35t17 26.5q20 37 45 78t41 78q33 72 54.5 139t44.5 141 q6 18 15 40t26 36q12 14 31.5 17t41.5 5q29 2 45.5 -5t24.5 -20t10 -30.5t6 -38.5q0 -33 17.5 -99.5t39 -136t39 -126t21.5 -68.5q4 -18 26.5 -69.5t52.5 -98.5t59.5 -71.5t47.5 8.5t29.5 62.5t20 61t14.5 67.5t14 81q14 72 15 154q0 111 -29 200q-10 31 -20.5 62t-10.5 57 q0 27 14.5 47.5t55.5 34.5q15 5 28 5q25 -1 45 -21q28 -32 52 -101q16 -47 22 -102t6 -115q0 -63 -5 -122.5t-11 -112.5q-6 -57 -18.5 -120t-29.5 -126t-37.5 -124.5t-45.5 -113.5q-20 -43 -65.5 -71.5t-96.5 -28.5q-39 0 -67.5 15.5t-48 39t-33 53t-23.5 60.5 q-35 94 -69.5 189.5t-85.5 185.5q-6 10 -18.5 30.5t-31.5 20.5q-20 0 -37.5 -22.5t-27.5 -34.5q-43 -51 -79 -109.5t-60 -118.5q-23 -59 -46.5 -116.5t-39.5 -116.5q-10 -33 -29 -74t-60 -57q-18 -7 -37 -7q-24 0 -48 11q-44 20 -56 51q-12 33 -12 72q0 37 5 73q4 26 4 52 q0 10 -1 20q-4 76 -15.5 148.5t-15.5 148.5q-2 39 -5 78t-13 76q-6 59 -11 98t-11.5 64.5t-11.5 42t-9 32.5q-4 14 -10 30t-8 34z" />
<glyph unicode="X" horiz-adv-x="1134" d="M41 37q0 18 5 37.5t13 40.5q27 59 54.5 112.5t64.5 106.5q16 27 34.5 51.5t39.5 50.5q32 41 56 87q15 29 15 55q0 16 -6 32q-2 10 -19 38t-38 63q-18 35 -44 66.5t-51.5 63t-48 63.5t-34.5 67q-12 31 -8 52t18 35.5t36 21.5t44 12h9q18 0 30 -6q16 -8 29.5 -23.5 t24.5 -35t24 -38.5q16 -25 38.5 -56.5t45.5 -62.5q16 -18 30.5 -37.5t30.5 -35.5q35 -37 72 -37q29 0 58.5 15.5t58.5 35.5q20 12 38.5 26.5t36.5 28.5q43 33 84 65t80 60q53 39 82 54.5t45 17.5q8 1 16 1q31 0 53 -12q26 -14 25 -62v-7q0 -23 -10 -39t-24.5 -30.5t-32 -27 t-31.5 -24.5q-49 -41 -112.5 -89t-116.5 -93q-10 -10 -19.5 -18.5t-19.5 -18.5q-41 -47 -41 -100q0 -47 33 -90q27 -43 77 -86t91 -74q35 -29 76.5 -54.5t70.5 -60.5q20 -27 20 -65q0 -27 -12 -49.5t-39 -28.5q-10 -2 -21 -2q-22 0 -48 9q-36 13 -72.5 36.5t-67 50.5 t-53.5 47q-37 37 -76 78t-80 82q-29 25 -57.5 37t-56.5 0q-12 -4 -23.5 -12.5t-21.5 -18.5q-33 -41 -62.5 -82t-56.5 -86q-18 -33 -41 -85t-50 -95q-26 -42 -58 -62q-11 -7 -22 -7q-22 0 -46 24q-39 39 -39 88z" />
<glyph unicode="Y" horiz-adv-x="1077" d="M31 911q-2 14 -2 27q0 22 6 41q8 23 27.5 38t43.5 7q27 -6 43.5 -39t30.5 -55q27 -41 58.5 -76t68.5 -70q29 -25 66 -51t71 -37q27 -10 52.5 -0.5t49 28.5t43 43t36.5 42q27 29 53.5 54.5t54.5 51.5q25 23 47.5 47.5t48.5 45.5q23 18 47.5 35.5t50 28.5t53.5 14q6 1 12 1 q22 0 44 -8q33 -11 33 -33q0 -23 -19 -52q-18 -25 -41.5 -48.5t-33.5 -38.5q-25 -35 -51.5 -60.5t-53.5 -55.5q-53 -59 -111.5 -112.5t-109.5 -125.5q-16 -23 -29.5 -45.5t-17.5 -50.5q-4 -35 -4 -65t-6 -64q-8 -47 -8 -103q0 -20 1 -38.5t3 -41.5q2 -14 2 -29.5v-31.5 q0 -31 -4 -60.5t-19 -52.5q-25 -39 -55 -39q-29 0 -52.5 32t-27.5 71q-2 31 -2 62.5v62.5v100v47.5t-2 46.5q-2 31 -3 60.5t-17 56.5q-12 23 -35 34t-43 23q-61 35 -111.5 83t-93.5 104q-18 25 -37.5 56.5t-35 67t-21.5 72.5z" />
<glyph unicode="Z" horiz-adv-x="1005" d="M25 35q0 41 27.5 76.5t56.5 74.5q104 143 239 296t270 298q14 14 27.5 34t16 35t-10 24.5t-49.5 5.5q-43 -4 -86 -4.5t-86 -4.5q-41 -4 -84 -7t-84 -7q-14 0 -33.5 -1t-38 2t-35 11.5t-22.5 22.5q-4 11 -4 21q0 32 43 57q41 23 76 31t57 14q35 10 72 15t72 13 q121 23 237 31q47 4 93 10.5t93 10.5q14 0 34 1h10q14 0 28 -2q18 -3 30.5 -12.5t16.5 -29.5q1 -5 1 -10q0 -15 -5 -31q-6 -21 -18.5 -39.5t-26.5 -35.5t-27 -32q-39 -47 -76.5 -92t-74.5 -94q-82 -111 -175.5 -214.5t-185.5 -207.5q-8 -8 -22 -24.5t-28.5 -36t-26 -38 t-13.5 -30.5q-4 -18 12.5 -25.5t39 -7.5t46 4t33.5 8q45 12 69 21.5t60 15.5q37 6 75 13.5t75 9.5q16 0 34.5 1t35 -2t31 -12.5t20.5 -27.5q12 -35 -15.5 -56.5t-52.5 -31.5q-109 -41 -213 -65.5t-227 -53.5q-33 -8 -84 -20.5t-100 -12.5q-35 0 -64 9.5t-45 37.5 q-10 16 -14 31.5t-4 32.5z" />
<glyph unicode="[" horiz-adv-x="616" d="M63 879q0 53 1.5 106t1.5 107v39.5t4 44.5q-2 29 2 60.5t16 59.5q18 41 42 50.5t63 11.5q35 0 70.5 -4t72.5 0q33 4 74 14t77 10q31 0 53.5 -13t30.5 -50q8 -41 -1 -66.5t-32.5 -39t-56 -18.5t-71.5 -5q-20 0 -47 -3t-51.5 -10.5t-45 -22.5t-28.5 -40q2 -35 2 -69.5 v-57.5q2 -53 -1 -109.5t-8 -111.5q-4 -43 -11 -111.5t1 -161.5q4 -37 4 -77.5v-83.5v-115q0 -51 3 -100.5t5 -100.5q2 -23 2.5 -48t-1 -50t-1.5 -44.5t3 -27.5q8 -33 59 -32q27 0 59.5 6t64.5 11t58.5 5t42.5 -14q31 -29 31 -62q0 -39 -31 -72.5t-74 -39.5q-8 -2 -24 -2 h-33.5t-34 1t-24.5 1q-18 0 -37 -2t-37 -4q-35 0 -70.5 -7.5t-64.5 4.5q-37 16 -38 46t-1 69q0 37 -2 72t-2 72q0 27 -1 67.5t-2 80.5t-1 71.5v42.5q0 45 -4 88t-2 88q0 31 1 61.5t1 61.5t-1 61.5t-1 61.5q-2 76 -3.5 150.5t-1.5 150.5z" />
<glyph unicode="\" horiz-adv-x="907" d="M10 1167q4 31 25.5 51.5t50.5 16.5q27 -4 56.5 -34t56 -69.5t49 -80.5t39.5 -68q31 -53 58.5 -109.5t53.5 -109.5q66 -139 141.5 -269t151.5 -268q43 -78 90 -149.5t82 -151.5q16 -35 23.5 -67.5t-10.5 -57.5q-16 -23 -49 -20.5t-60 31.5t-51.5 69.5t-46.5 73.5 q-25 39 -44.5 77t-41.5 77q-25 43 -52.5 83.5t-50.5 83.5q-31 61 -64.5 121t-68.5 119q-72 123 -141.5 248t-138.5 252q-18 33 -40 75t-18 76z" />
<glyph unicode="]" horiz-adv-x="618" d="M47 -240.5q10 25.5 32.5 39t56.5 18.5t73 5q20 0 47 3t51.5 10t45 22.5t28.5 40.5q-2 35 -2 68.5v58.5q-2 53 1 109t7 112q4 111 5 185.5t1 123.5v78v47v113q0 51 -3 101t-5 99q-2 23 -2 49.5t1 51t1 43t-2 28.5q-8 33 -59 33q-27 0 -60 -6t-64.5 -11t-59 -5t-42.5 14 q-31 27 -30 61q0 39 30.5 73t73.5 40q8 2 24.5 2t34 -1t34 -2t24.5 -1q18 0 36.5 3t36.5 3q35 2 71 8t65 -6q37 -16 38 -45t1 -68q0 -37 2 -72.5t2 -70.5q0 -45 2 -110.5l4 -131t3 -121t1 -75.5q-2 -33 -2 -63.5v-61.5v-61.5t2 -61.5q2 -76 3 -149.5t1 -149.5 q0 -53 -1 -106.5t-1 -106.5v-39.5t-4 -44.5q2 -31 -2 -61.5t-19 -59.5q-16 -41 -39.5 -50t-62.5 -11q-35 -2 -71 2t-72 0q-33 -4 -73 -13.5t-77 -9.5q-31 0 -54.5 13.5t-31.5 50.5q-10 41 0 66.5z" />
<glyph unicode="^" horiz-adv-x="759" d="M25 711q0 16 4 31.5t8 29.5q20 53 47 93t61 83q47 57 90.5 114.5t100.5 104.5q18 14 44 35t54.5 39.5t59 31.5t59.5 13q39 0 68 -31q20 -23 28 -52t10.5 -61t2.5 -65t4 -59q12 -94 43 -187q6 -18 10 -34.5t4 -30.5q0 -23 -12.5 -38t-44.5 -26q-43 -14 -71 -3.5t-44 35 t-26.5 61t-17.5 73.5t-15.5 72t-22.5 57q-18 2 -42 -12t-47.5 -35.5t-44 -43t-30.5 -34.5q-29 -37 -56.5 -73.5t-49.5 -77.5q-10 -16 -21.5 -35.5t-25 -35t-33 -22.5t-43.5 1q-29 10 -40 32.5t-11 49.5z" />
<glyph unicode="_" horiz-adv-x="1107" d="M45 -88q-10 37 24.5 62.5t84.5 29.5l112 14q61 10 113.5 20.5t101.5 12.5q23 0 85.5 11.5t133 24.5t132 24.5t83.5 11.5h38t38.5 -3t32.5 -12.5t23 -27.5q8 -23 2.5 -39t-17.5 -28.5t-29.5 -22t-33.5 -17.5q-41 -20 -127 -38.5t-181.5 -33t-182.5 -26.5t-130 -20 q-29 -4 -73 -12.5t-89 -8.5q-47 0 -88 15.5t-53 62.5z" />
<glyph unicode="`" horiz-adv-x="634" d="M78 1441.5q2 24.5 26 49.5q33 33 68 20.5t66 -36.5q20 -20 40.5 -38t40.5 -36l45 -45t58 -53l55 -48q6 -6 19.5 -17t28 -25.5t26.5 -29t16 -24.5q12 -29 -8 -57.5t-49 -32.5q-35 -6 -72 13.5t-71 47.5q-29 25 -55.5 50.5t-47.5 44.5q-16 16 -40.5 33.5t-51.5 39.5 q-27 20 -49.5 45t-34.5 49.5t-10 49z" />
<glyph unicode="a" horiz-adv-x="1017" d="M39 83q-1 17 -1 33t1 31q12 117 52 220.5t91 207.5q59 123 150.5 229.5t191.5 194.5q29 27 75 50.5t91 23.5q49 0 78 -37q25 -33 32 -56.5t7 -49.5q0 -16 -1 -32.5t-1 -39.5q0 -20 4 -49t9 -60.5t11.5 -60.5t10.5 -49q4 -31 9 -60.5t25 -56.5q14 -23 40 -33t36 -34 q12 -31 -3 -52.5t-25 -46.5q-10 -27 -4 -53t10 -51q6 -27 17 -56.5t22.5 -60.5t16.5 -61q2 -13 2 -26q0 -16 -3 -32q-10 -29 -42 -37t-56 3q-25 10 -41.5 32.5t-26.5 50t-18 56.5t-17 51q-8 25 -13 52.5t-24 43.5q-23 18 -46 24.5t-52 8.5q-14 1 -29 1q-52 0 -110 -12 q-74 -14 -139 -38q-25 -8 -54.5 -17.5t-55.5 -23.5t-44 -35.5t-20 -54.5q-2 -20 2 -48t4 -57q-1 -33 -13 -54q-10 -18 -39 -18q-6 0 -12 1q-35 4 -55.5 24.5t-30.5 50t-12 63.5zM334 487q-1 -6 -1 -11q-1 -18 17 -22q11 -2 24 -2q14 0 30 2q32 5 64 15t44 12q35 6 66.5 11.5 t66.5 9.5q16 2 31.5 4t21.5 18q2 5 2 10q0 10 -4 20q-6 18 -8 26q-10 47 -15 68.5t-14 56.5q-2 10 -5 24t-7 28.5t-10 26t-16 17.5q-8 3 -17 3q-12 0 -26 -6q-25 -10 -50.5 -28t-47 -38.5t-31.5 -33.5q-20 -25 -38 -53.5t-32 -56.5q-12 -27 -26.5 -49.5t-18.5 -51.5z" />
<glyph unicode="b" horiz-adv-x="1181" d="M63 774q-6 12 -6 26q1 18 11 36q18 32 41 49q59 47 134.5 76.5t145.5 52.5q16 4 51 13t72 13q94 24 190 38q71 11 140 10q24 0 47 -1q51 -4 108.5 -15t96.5 -46q43 -37 43 -88q0 -31 -12.5 -61.5t-32 -59.5t-42 -54.5t-42.5 -45.5q-18 -20 -30.5 -32.5l-22 -22 t-17.5 -16.5t-20 -15q-4 -4 -15.5 -11.5t-24 -16.5t-20.5 -17t-6 -13q10 -20 36 -21t38 -5q51 -8 84.5 -29.5t51 -52.5t21.5 -68q2 -18 2 -37t-2 -38q-10 -94 -62 -160t-125 -109t-153.5 -68.5t-148.5 -39.5q-63 -14 -125 -15q-47 0 -93 7.5t-95 21.5q-47 12 -92.5 38 t-59.5 79q-2 8 -3 17t-3 18q2 57 3 101t2 80t4 67.5t9 68.5q12 63 17.5 123.5t15.5 144.5q4 25 -6 41q-8 14 -22.5 15.5t-30 1.5t-29.5 2t-23 18zM301 229q2 -8 2 -29.5t8 -25.5q35 -31 78 -44t92 -13q72 0 149 22t138 51q14 6 42 22.5t49.5 38t29.5 45t-15 44.5 q-29 29 -77.5 41t-94.5 22q-23 6 -45 6.5t-47 4.5q-20 4 -38.5 6t-47.5 0q-45 -2 -89 -10.5t-79 -28.5q-41 -23 -50 -67q-6 -30 -6 -59q0 -13 1 -26zM319 610q0 -25 15 -30q25 -4 43 -8q8 -2 19 -1q12 0 28 2q35 6 63 19q16 6 41 14t41 15q33 14 54.5 24t41 20.5t40 22.5 t53.5 29q6 4 16 10t23 14q45 33 73 64q8 10 15.5 20.5t9.5 19.5q1 4 1 7q0 5 -2 10q-3 8 -17 17q-23 10 -55 17q-24 5 -45 5h-11q-29 -2 -63.5 -6t-63.5 -8q-35 -4 -65.5 -11.5t-61.5 -13.5q-25 -6 -51.5 -12t-51 -18.5t-44 -32t-27.5 -47.5q-10 -43 -14.5 -71t-4.5 -71z " />
<glyph unicode="c" horiz-adv-x="1128" d="M43 274q0 127 35 248t94 211q31 45 74 94.5t97 94.5t115.5 80.5t129.5 54.5q39 10 74.5 15t66.5 5q84 0 137 -33q18 -12 43 -30.5t49.5 -40t45 -48t32.5 -53.5q9 -46 9 -85q0 -22 -3 -43q-8 -56 -53 -66q-4 -2 -12 -2q-25 0 -35 18.5t-16 38.5t-15 31q-20 33 -56 59.5 t-67 42.5q-35 20 -96 21q-49 0 -86 -13q-104 -35 -187 -110.5t-136 -181.5q-23 -45 -44.5 -117t-21.5 -141q0 -39 10 -76q18 -59 68 -86q74 -37 166 -37q72 0 149.5 22.5t149.5 63.5q25 14 42 24.5t34 20.5q14 10 30.5 20.5t40.5 24.5q29 16 66 30.5t65 14.5q53 0 54 -51v-6 q0 -35 -20 -53q-22 -20 -52 -41q-10 -6 -21.5 -14.5t-23.5 -18.5q-31 -25 -54.5 -40.5t-52.5 -31.5q-10 -8 -22 -14t-27 -17q-35 -23 -82 -44t-100 -37.5t-108.5 -26.5t-106.5 -10q-74 0 -121 20q-121 47 -189.5 131t-68.5 182z" />
<glyph unicode="d" horiz-adv-x="1216" d="M43 874q0 39 33 72q18 16 44.5 25.5t49.5 15.5q29 8 57.5 14.5t57.5 14.5q45 10 88 23.5t88 19.5q18 0 38.5 3t46 6l59.5 7t81 6q23 2 42.5 3t39.5 1q39 0 76 -2q18 -1 37 -1t39 1q24 1 47 1q35 0 69 -2q58 -3 111 -38q29 -16 39 -41.5t10 -54.5q0 -27 -6 -52.5 t-14 -51.5q-20 -66 -53 -129.5t-74 -118.5q-53 -76 -107.5 -145.5t-120.5 -131.5q-82 -78 -169 -148.5t-181 -125.5q-29 -16 -58.5 -35.5t-60 -37t-62.5 -29t-63 -11.5q-27 0 -40 17.5t-18 42t-5 53.5t2 51q4 80 9 161t11 161q6 72 18.5 145.5t16.5 145.5q2 29 2 54t-30 30 q-23 4 -47.5 1t-47.5 5q-29 10 -42 30.5t-13 44.5zM344 301q0 -18 1 -37.5t6 -33t17 -18.5q4 -1 9 -1q11 0 29 8q70 33 129 85t118 102q59 47 109.5 103.5t97.5 115.5q12 14 38 45.5t48.5 67.5t32.5 68q4 11 4 21q0 17 -12 27q-23 20 -62 25.5t-67 5.5q-16 2 -30.5 2h-31.5 q-27 0 -52.5 -1t-47.5 -3q-29 -4 -69 -4t-81 -5.5t-76.5 -20.5t-54.5 -46q-15 -27 -15 -61v-28q0 -23 -1 -44q-4 -55 -13.5 -110.5t-15.5 -110.5q-4 -39 -8 -76q-3 -25 -3 -50q0 -13 1 -26z" />
<glyph unicode="e" horiz-adv-x="1085" d="M55 100q4 20 5 40t3 40q2 23 3.5 43.5t5.5 40.5q12 70 16 136.5t8 131.5q0 14 2 41t5 54.5t5.5 54.5t2.5 43q2 8 2 35q2 27 4 62.5t9 71.5t19.5 67.5t32.5 52.5q24 28 60 28h2q27 2 51 0t49 -6q31 -4 55.5 -4t50.5 2q23 0 64 4t85 10.5t84 12.5t64 10l45 8q6 2 21.5 3 t36.5 3q25 2 57.5 2t62 -5t52 -14t29.5 -28q2 -6 2 -13q0 -24 -27 -52q-25 -27 -77 -39t-97 -21q-10 -2 -20.5 -3t-16.5 -3q-20 -4 -58 -10t-79 -12t-80 -11.5t-62 -9.5q-55 -10 -110 -12q-23 -4 -45 -5t-47 -5q-10 -2 -23.5 -25.5t-25.5 -73.5q-14 -59 -16.5 -101t7.5 -46 q23 -8 43.5 -14t46.5 -4l33 4q41 4 90.5 8t83.5 14q8 2 36 5t62.5 7.5t67.5 7.5t51 5q10 0 29 1t37 0t34.5 -3t26.5 -6q16 -8 23.5 -25.5t3.5 -38.5q-10 -49 -55 -65q-29 -10 -74 -19.5t-92 -17.5t-88 -14.5t-62 -10.5q-16 -4 -28.5 -6t-22.5 -4q-14 -4 -32.5 -5t-41.5 -3 q-29 -2 -60.5 -4t-61 -10.5t-52 -21.5t-30.5 -36q-4 -12 -7.5 -29.5t-5.5 -34t-2 -28.5v-17q0 -4 1 -11t1 -19q0 -39 13.5 -52.5t50.5 -17.5q16 -2 31.5 -2h29.5q23 2 43.5 6t42.5 8q16 4 37 8.5t47 8.5q8 2 18.5 4t20.5 6q6 2 35 5t69 8t85 10.5t84.5 8.5t67.5 6t34 3 q16 2 26.5 -1t20.5 -7q30 -15 30 -43q0 -5 -1 -10q-4 -20 -20.5 -38t-41.5 -28l-51 -20q-31 -12 -103.5 -26.5t-152.5 -28t-152.5 -24t-105.5 -16.5q-16 -4 -34.5 -8t-39.5 -8q-29 -6 -56.5 -12t-55.5 -11h-2q-29 6 -48.5 28t-39.5 40q-23 23 -35.5 47.5t-18.5 52.5z" />
<glyph unicode="f" horiz-adv-x="976" d="M80 150q0 53 5 106t5 88l10 217q4 45 10.5 91t16.5 91q8 47 19.5 91.5t15.5 91.5t25.5 68.5t68.5 31.5q86 18 178 19.5t180 5.5q45 4 89.5 7t91.5 3q14 0 35.5 -1t44 -3t43 -8.5t30.5 -14.5q18 -16 20 -34q1 -4 1 -8q0 -13 -5 -24q-8 -16 -24 -28t-35 -14 q-43 -6 -86 -10.5t-90 -8.5q-92 -10 -181 -25.5t-177 -37.5q-53 -14 -65.5 -38t-16.5 -77q-2 -16 -4 -34.5t-2 -39.5q0 -25 6 -47t22 -35q12 -10 29.5 -14t36.5 -4q29 0 55.5 4t48.5 6q45 4 88 7t88 8q23 2 55.5 5t63.5 3q39 0 58 -8q31 -14 30 -50q0 -23 -11 -42t-30 -29 q-41 -23 -85 -28t-87 -11q-47 -8 -91 -16.5t-89 -18.5q-43 -10 -89 -13t-87 -20q-23 -8 -36 -22.5t-19.5 -32.5t-7.5 -38.5t-1 -43.5q0 -45 15 -88q11 -34 11 -66q0 -9 -1 -18q-4 -41 -34 -69q-18 -17 -41 -17q-13 0 -27 6q-45 18 -59.5 71.5t-14.5 115.5z" />
<glyph unicode="g" horiz-adv-x="1105" d="M43 346q0 20 1 40t3 38q10 117 53 222.5t121 191.5q68 74 156 132t186 87q45 14 86 19q23 3 47 3q20 0 41 -2q33 -4 77 -12t89 -45q8 -10 15.5 -17.5l15.5 -15.5q23 -23 37 -51.5t4 -61.5q-10 -35 -44 -47q-15 -5 -29 -5q-19 0 -38 9q-27 12 -47 35t-51 33q-35 10 -59 10 q-20 0 -40 -4t-40 -10q-98 -35 -169 -91t-132 -142q-53 -72 -83 -157q-21 -61 -21 -125q0 -26 3 -52q4 -33 12.5 -75t32.5 -65q33 -31 74 -50t82 -19q18 0 36.5 -1t37.5 -1q41 0 75 8q35 10 78 24.5t76 30.5q20 10 53 36t60.5 58.5t41.5 67.5q7 17 7 32q0 17 -8 32 q-12 23 -38 30.5t-57 7.5q-43 0 -88 -10t-69 -18q-10 -4 -30.5 -12.5t-44.5 -17.5t-49.5 -15t-45.5 -6q-23 0 -39 10t-21 37q-2 16 6.5 38.5t20.5 45t25.5 41t25.5 24.5q41 27 88 36t92 21q29 6 55.5 10.5t55.5 4.5q53 0 104.5 -14.5t96.5 -47.5q47 -33 69.5 -89t22.5 -115 q-1 -56 -19 -105q-23 -61 -71.5 -110.5t-108 -88t-125 -65.5t-123.5 -43q-31 -10 -61.5 -13t-62.5 -3q-86 0 -170 27.5t-154 78.5q-45 35 -65.5 68.5t-39.5 87.5q-10 35 -15 71.5t-5 73.5z" />
<glyph unicode="h" horiz-adv-x="1122" d="M84 170q0 57 4 119.5t11 122t15.5 113t14.5 96.5q4 16 4 29.5v29.5q0 33 -2 65.5t2 63.5q2 25 3 65.5t10 76.5q10 37 32 57q13 12 34 12q15 0 34 -6q20 -6 32.5 -20.5t16.5 -34t4 -40v-38.5q0 -20 -2 -32.5t-3 -22t-3 -21.5t-4 -33q-1 -29 -1 -58v-29q1 -44 9 -85 q10 -49 43 -56q26 -5 57 -5h19q31 3 59 3q14 0 27 -1h16q32 0 68 6q41 8 82 15t82 13q20 2 39.5 4.5t36 7.5t27.5 16t17 34q10 41 15.5 86t5.5 90q0 12 2 41t8 62.5t15.5 67.5t23.5 55.5t34 28.5q5 2 12 2q16 0 36 -15q18 -12 23.5 -35t5.5 -45q0 -18 -1 -36.5t-1 -35.5 q1 -27 1 -56v-29q-1 -44 -1 -89q0 -86 -3.5 -170t-7.5 -170q-2 -33 -3 -64.5t-1 -64.5q0 -49 4 -97t21 -95q9 -29 9 -55q0 -8 -1 -16q-4 -32 -53 -44q-11 -3 -22 -3q-28 0 -46 20q-26 28 -43 63q-16 39 -21.5 78t-5.5 84q0 23 4.5 53.5t4.5 58.5q0 18 -2 34.5t-11 27.5 q-10 14 -25.5 19t-33.5 5q-25 0 -49.5 -5t-42.5 -9q-43 -6 -86 -8t-84 -13q-41 -8 -79 -14t-79 -16q-18 -6 -39.5 -7.5t-40 -5.5t-34 -14t-21.5 -33q-12 -39 -15 -85q-1 -15 -1 -30q0 -30 4 -57q4 -18 10 -40.5t6 -45.5q0 -16 -5 -29.5t-22 -23.5q-13 -8 -28 -8h-7 q-18 2 -35.5 11t-30.5 23.5t-19 28.5q-16 35 -22.5 77t-6.5 81z" />
<glyph unicode="i" horiz-adv-x="434" d="M131 300q-2 16 -2 32t2 33q4 47 4 91v91v67q0 78 2 156t6 156q0 27 3.5 57.5t23.5 48.5q18 18 47 24q10 2 20 1q17 0 31 -6q20 -12 30.5 -39t13.5 -57.5t3 -62.5v-52q0 -41 -4 -82t-10 -82q-10 -104 -11 -203.5t-3 -202.5q-1 -16 -1 -31q0 -23 2 -45q3 -38 3 -75 q0 -39 -6 -78q-4 -27 -13.5 -47.5t-38.5 -30.5q-11 -3 -22 -3q-15 0 -30 6q-25 11 -36 38q-10 23 -10 54.5t-2 58.5q-2 31 -1 59.5t3 56.5q0 35 -4 67z" />
<glyph unicode="j" horiz-adv-x="1120" d="M45 246q0 45 13.5 85t58.5 50q35 6 53 -25.5t31 -70.5q4 -20 9 -38t13 -34q4 -6 5 -11t5 -9q29 -51 76 -68q58 -36 128 -36q19 0 38 3q96 12 179 75.5t124 156.5q23 45 32 100t9 115q0 59 -8 106q-12 49 -35 86q-27 45 -68.5 60.5t-89.5 15.5q-45 0 -89 -8t-80 -15 q-47 -6 -91 -17q-16 -4 -33 -4q-28 0 -57 11q-16 6 -30.5 25.5t-22.5 43t-7 45t17 34.5l27 22q117 8 235.5 26.5t235.5 41.5q37 6 62.5 12t50 12t50 14.5t60.5 20.5q23 6 52 21q26 12 46 12h5q31 -2 44 -21.5t13 -48.5q0 -25 -9.5 -49t-25.5 -41q-18 -16 -27.5 -20 t-16.5 -6.5t-15 -5.5t-27 -17q-27 -18 -29 -54v-11q0 -31 7 -64q0 -4 5 -35t11 -67.5t11 -72.5t5 -50q0 -117 -33.5 -226.5t-107.5 -187.5q-88 -92 -205 -152.5t-239 -60.5q-119 0 -224 66q-59 39 -95 112.5t-46 153.5z" />
<glyph unicode="k" horiz-adv-x="995" d="M80 84l6 66q0 141 17.5 278t31.5 277q5 51 13 100q6 33 5 68q0 16 -1 32q-2 16 -7.5 41t-5.5 47q0 18 7.5 32.5t25.5 21.5q20 8 40.5 -1.5t37 -27t29 -39t16.5 -35.5q8 -35 8 -82q0 -23 -1 -42t-1 -40q-2 -16 -3 -38.5t-1 -49.5q0 -31 3 -58.5t14.5 -44t31 -17.5t49.5 24 q80 63 147.5 140t139.5 149l127 127q23 23 61 42q21 10 41 10q17 0 33 -7q18 -9 24 -27q3 -10 3 -21q0 -9 -2 -17q-4 -20 -13.5 -38t-17.5 -30q-27 -37 -62.5 -70t-68.5 -66q-33 -31 -63.5 -62.5t-61.5 -66.5q-14 -14 -30.5 -35.5t-32 -46t-27.5 -49t-14 -45.5 q-4 -25 15 -57.5t51 -70.5t69 -78.5t68.5 -80.5t53 -77t21.5 -68q0 -33 -29 -53q-23 -14 -41 -13t-34.5 11t-30.5 25.5t-27 29.5q-33 35 -66.5 71t-68.5 73t-85 76.5t-103 39.5q-47 0 -86 -47q-20 -27 -33.5 -65.5t-18.5 -73.5q-2 -16 0.5 -35.5t3.5 -40t0 -39t-10 -33.5 q-9 -14 -25 -19q-10 -3 -21 -3q-7 0 -13 1q-18 3 -36.5 11t-27.5 19q-10 12 -14 29.5t-6 33.5q-2 10 -3 17.5t-1 17.5z" />
<glyph unicode="l" horiz-adv-x="831" d="M72 86q0 8 -1 16q0 23 3 48q0 63 5 129.5t13 138.5q4 47 7 93t3 93q0 45 4.5 90t10.5 90q2 12 3 34t1 43.5t1 42t3 32.5q4 41 11 71.5t42 49.5q25 10 39 10q47 0 64 -51q10 -29 13 -62.5t3 -70.5q0 -47 -4 -96.5t-12 -86.5q-12 -70 -19.5 -142.5t-11.5 -133.5l-14 -188 q2 -27 8 -51.5t28 -32.5q35 -14 84 -15h16.5t39.5 4q25 2 51 5.5t49 7.5q8 2 26.5 5t39 7t39 7t26.5 5q16 4 31.5 6t32.5 6q10 2 20.5 3.5t20.5 1.5q53 0 51 -56q-2 -23 -16.5 -38t-34 -26.5t-42 -18.5t-40.5 -15q-10 -4 -30 -10t-42.5 -12.5t-44 -12.5t-31.5 -8 q-35 -10 -69.5 -15.5t-69.5 -11.5q-25 -4 -49.5 -8t-48.5 -8q-23 -2 -43 -3h-6q-18 0 -35 5q-27 8 -51.5 31.5t-45.5 44.5q-26 23 -28 53z" />
<glyph unicode="m" horiz-adv-x="1484" d="M53 63q-3 27 -3 53q0 59 16 115q22 80 45 162q27 98 69.5 196.5t98.5 184.5q23 35 50 75t61 73.5t73 58.5t82 31q41 6 53 -22.5t16 -65.5q4 -35 7.5 -70t13.5 -68q10 -35 18.5 -71.5t20.5 -69.5q2 -12 9 -26.5t16.5 -25.5t19.5 -16.5t20 3.5q59 51 103.5 118.5 t91.5 126.5q29 35 53.5 71t52.5 67q14 16 27.5 36.5t32.5 32.5q16 10 36.5 21.5t39.5 15.5q8 2 16 2q26 1 48 -19q30 -26 40 -55q12 -36 12 -73v-10q-1 -14 -1 -28q0 -28 3 -57q4 -59 7.5 -117.5t17.5 -129.5l18 -84q10 -47 21.5 -97.5t23 -95.5t19.5 -81t14 -52 q9 -30 17 -58q3 -12 4 -25q0 -17 -6 -36q-6 -16 -20.5 -25.5t-31 -12.5t-34 1t-29.5 15q-25 18 -36 36.5t-24 47.5q-33 76 -42 155.5t-29 157.5q-10 41 -17.5 80t-17.5 80q-4 14 -8 36.5t-15 34.5q-12 16 -23 22.5t-28 -3.5q-47 -35 -89 -88t-75.5 -120t-58.5 -142.5 t-35 -155.5q-4 -33 -6.5 -75t-32.5 -66q-29 -25 -53.5 -15.5t-42.5 37.5q-20 29 -31.5 64t-20.5 71.5t-16.5 73.5t-19.5 68q-23 61 -39 116.5t-39 114.5q-10 29 -21.5 51.5t-48.5 18.5q-35 -4 -54 -30t-36 -52q-74 -125 -102 -268q-8 -37 -14 -71q-4 -23 -5 -50q0 -12 1 -25 q1 -12 1 -24q-1 -21 -3 -41q-4 -32 -6 -66q-6 -43 -36 -53q-11 -4 -25 -4q-20 0 -44 10q-39 14 -51.5 42t-18.5 64z" />
<glyph unicode="n" horiz-adv-x="1081" d="M55 197q2 102 19.5 204.5t27.5 204.5q6 75 6 152v38v30q0 81 9 161q4 41 21.5 58.5t41.5 17.5q53 0 99 -55q8 -10 17 -32t19.5 -44.5t20.5 -44t20 -33.5q29 -33 54.5 -55.5t50 -43t50.5 -43t56 -55.5q29 -35 63 -69.5t60 -71.5q8 -12 23.5 -33.5t31 -37t29.5 -16.5t23 28 q14 61 20 104t8 82q0 20 6.5 51t12.5 62.5t12 62.5t6 53q4 47 5 82t18 76q6 14 19 30q14 16 29 26q12 8 26 8h7q18 -2 33 -23q10 -12 15.5 -33.5t8.5 -46t4 -48t1 -40.5q0 -29 -9 -69.5t-18 -81.5q-8 -33 -15 -67t-11 -69q-10 -66 -17.5 -134t-11.5 -138q-1 -22 -1 -44 t1 -44q2 -43 6 -86q4 -41 13.5 -80t11.5 -80q0 -25 -13.5 -45t-33 -30.5t-42 -10.5t-40.5 15q-23 18 -43.5 37.5t-34.5 46.5q-16 31 -33.5 58.5t-38.5 55.5q-18 27 -30.5 46.5t-24.5 42t-29.5 53t-46.5 79.5q-10 18 -28.5 41t-38 46.5t-40 44l-34.5 34.5q-23 20 -48.5 43 t-53.5 33q-27 8 -42.5 0t-23.5 -27.5t-10 -47t-2 -54.5q0 -70 -7.5 -139.5t-7.5 -147.5q0 -37 3.5 -71.5t11.5 -67.5q2 -14 3 -33.5t-3 -37t-16.5 -31t-34.5 -15.5h-9q-35 0 -59 27q-27 31 -42 74t-22.5 90t-7.5 78z" />
<glyph unicode="o" horiz-adv-x="1208" d="M43 319q0 68 16.5 135.5t43 133t61.5 124t72 107.5q57 74 131.5 124t160.5 83q16 6 45 15.5t63 17.5t69.5 14t66.5 6q27 0 48.5 -5t33.5 -17q49 -10 85 -39t52 -49q84 -90 128 -204t44 -233q0 -117 -47 -224t-147 -185q-25 -18 -47.5 -40t-48 -40t-56.5 -34.5t-72 -24.5 q-63 -14 -127 -30q-52 -13 -105 -14q-13 0 -26 1q-59 2 -120.5 11t-115.5 31.5t-100.5 63.5t-74.5 109q-33 74 -33 163zM227 358q0 -47 9 -82q23 -88 84 -123.5t143 -35.5q68 0 142.5 20.5t142 54t121.5 75.5t81 83t38 88t11 94q0 59 -18 119q-12 39 -22.5 74t-38.5 63 q-12 12 -26.5 24.5t-31.5 25.5q-6 4 -30.5 20t-43.5 33q-63 0 -121.5 -2t-117.5 -31q-47 -23 -94 -59.5t-84 -77.5q-61 -70 -102.5 -167t-41.5 -196z" />
<glyph unicode="p" horiz-adv-x="1107" d="M60 903q0 34 18 55q16 18 52 27.5t58 13.5q35 6 71 12.5t73 10.5q66 6 97.5 9t51 4t35.5 2t51 1t96.5 1t172.5 3q25 -2 54.5 -4t59 -6t55.5 -12.5t42 -20.5q51 -40 51 -101v-9q-2 -33 -17.5 -65.5t-37 -63.5t-47 -57.5t-50.5 -47.5q-70 -55 -140.5 -98t-148.5 -84 q-14 -8 -28.5 -15t-28.5 -18q-39 -20 -77 -36.5t-74 -32.5q-33 -14 -64 -27.5t-61 -30.5q-23 -10 -34 -30.5t-18 -49.5l-8 -149q0 -20 -2 -46t-14 -46q-12 -16 -23.5 -22.5t-21.5 -6.5q-18 0 -33.5 15.5t-26.5 31.5q-16 31 -23 70t-9 82q-1 29 -1 58v29q1 44 1 85t2 84t8 86 q2 25 11 63.5t17.5 80.5t12.5 80t0 60q-4 18 -12.5 25.5t-18.5 9.5t-22.5 4t-24.5 15q-24 21 -24 61zM294 570v-7q0 -13 3 -25q4 -16 20 -22q12 -6 27 -6q14 0 29.5 5t34.5 13q96 41 201 95t177 122q27 23 54 53q25 25 25 46q0 3 -1 6q-2 16 -28 27q-16 6 -41 6q-6 0 -38 -1 t-66 -2t-59.5 -2t-23.5 -1q-16 -2 -33.5 -3.5t-33.5 -1.5q-47 -2 -95.5 -7t-89.5 -23q-12 -6 -24.5 -14.5t-12.5 -26.5q-6 -47 -10 -87t-6 -81q0 -12 -4 -29.5t-5 -33.5z" />
<glyph unicode="q" horiz-adv-x="1171" d="M55 344v33.5t4 34.5q10 74 25.5 138t56.5 130q41 61 90.5 117.5t102.5 107.5q51 47 106.5 77t120.5 48q39 10 96.5 29.5t108.5 19.5q33 0 57 -12q20 -4 40 -13.5t30 -13.5q14 -10 28.5 -20t26.5 -21q53 -51 88 -112q47 -86 78 -176t31 -187q0 -37 -5 -73.5t-18 -73.5 q-16 -55 -42.5 -108.5t-63.5 -98.5q-10 -14 -23.5 -25.5t-29.5 -27.5t-18.5 -32.5t3.5 -32t17.5 -31t21.5 -29.5t20.5 -31.5t17.5 -36t9 -37t-4 -37.5q-10 -27 -31.5 -39t-44.5 -12q-35 0 -57 21q-16 14 -25.5 32.5t-19.5 36.5q-12 18 -22.5 38t-22.5 36q-10 14 -22.5 24.5 t-28.5 8.5q-18 0 -39 -10q-51 -23 -99.5 -34t-99.5 -11q-43 0 -82 8q-53 10 -104 23.5t-99 39.5q-92 51 -135 140.5t-43 191.5zM223 295q6 -41 32 -75t62.5 -58.5t79.5 -37.5t82 -13q37 0 77 7t68.5 22.5t38 37t-15.5 49.5q-16 16 -27.5 34t-25.5 36q-12 18 -26.5 37.5 t-23.5 39t-13.5 42t4.5 47.5q8 25 28.5 36t42.5 13q20 2 35.5 -10.5t30.5 -28.5q31 -41 54.5 -84t53.5 -84q23 -31 51 -31q18 0 38 10.5t38 22.5q23 29 40.5 66t29.5 71q12 39 12 84q0 59 -18.5 120t-44.5 108q-12 20 -39 45.5t-57.5 46t-64.5 35t-60 14.5q-33 0 -66 -6 t-53 -14q-49 -16 -96.5 -47t-86.5 -68q-43 -41 -78.5 -96.5t-61 -118t-37.5 -127.5q-6 -38 -6 -74q0 -26 3 -51z" />
<glyph unicode="r" horiz-adv-x="1159" d="M43 886q-2 4 -2 10q0 17 20 42q12 16 37 27.5t51.5 18.5t54 13.5t46.5 12.5q117 35 226.5 49t228.5 22q19 1 38 1q41 0 76 -6q51 -9 111 -19q53 -10 101 -25.5t85 -58.5q39 -45 39 -99q0 -37 -14.5 -73.5t-38 -70.5t-51 -62.5t-54.5 -49.5q-66 -53 -139.5 -102 t-150.5 -86q-16 -14 -32 -29.5t-16 -29.5q2 -18 14.5 -29.5t24.5 -26.5q18 -20 35 -40.5t35 -43.5t32.5 -45t33.5 -45q22 -23 30 -55q3 -14 4 -28q0 -19 -6 -38q-10 -33 -40 -50q-13 -7 -26 -7q-17 0 -34 12q-12 8 -22.5 22.5t-22.5 25.5q-16 14 -29.5 28.5t-28.5 28.5 q-45 43 -84.5 90t-87.5 86q-18 14 -54 19.5t-58 7.5q-16 0 -49 -19q-8 -4 -15.5 -11t-13.5 -13q-16 -20 -23.5 -46t-11.5 -53.5t-5 -55.5t-3 -52q-2 -29 -5 -50.5t-32 -37.5q-16 -8 -28 -8q-9 0 -17 4q-18 10 -33 34q-12 23 -21 51q-6 19 -6 49q0 13 1 29l18 226 q8 72 17.5 129t13.5 116q2 29 6 68t4 78q0 25 -3 47.5t-13 38.5t-36 26.5t-47.5 22.5t-29.5 30zM330 643q-2 -32 -2 -55q0 -28 3 -42q5 -26 25 -34q11 -4 22 -4q14 0 26 5q24 9 47 15q53 14 105.5 31.5t105.5 42.5q27 12 79 36t100 56q47 31 79 69q22 26 22 53q0 12 -4 24 q-49 35 -110.5 48t-127.5 13q-78 0 -147 -12q-41 -6 -87 -15.5t-81 -35.5q-14 -10 -24.5 -35t-16.5 -54.5t-9 -58z" />
<glyph unicode="s" horiz-adv-x="1112" d="M21 475q2 25 10 48.5t21.5 45t25.5 37.5q33 45 67.5 88t73.5 84q37 37 79 75t95 76t121 74.5t156 73.5q41 7 95 13q26 3 49 3q25 0 46 -3q29 -4 41 -21.5t12 -40.5q0 -18 -9 -36.5t-25 -30.5q-37 -25 -87.5 -32t-95.5 -22q-127 -39 -210 -101.5t-148 -133.5 q-14 -16 -16.5 -32.5t4.5 -27.5q2 -4 14 -4t28.5 1t32 4t25.5 3q47 4 96 8.5t96 6.5q23 2 40.5 2h33.5q29 0 55.5 -2t57.5 -8q41 -6 103.5 -13.5t101.5 -19.5q60 -23 72 -62q6 -19 5 -40q0 -22 -6 -46q-10 -43 -31.5 -89t-62.5 -91q-70 -74 -138.5 -140.5t-160.5 -117.5 q-41 -23 -80 -48.5t-86 -29.5h-9q-20 0 -37 6q-21 8 -37.5 22.5t-23.5 34t-3 44.5q4 20 18 32.5t33.5 21.5t40 15.5t39.5 16.5q45 23 89 48.5t87 51.5q39 23 72.5 58.5t62.5 70.5q24 31 24 52q0 14 -8 22q-24 24 -75 29q-25 2 -50.5 2h-50.5q-78 0 -152.5 -5.5t-148.5 -17.5 l-196 -31q-18 -4 -41 -7t-45 -3q-25 0 -46.5 8.5t-33.5 32.5q-10 17 -10 38v7z" />
<glyph unicode="t" horiz-adv-x="923" d="M18 868q0 18 6 34q6 18 16.5 33t22.5 23q29 16 74 18.5t76 6.5q53 7 109 21q43 10 85 11q13 0 25 -1q23 0 45.5 -1t44.5 -1q33 0 64.5 2t66.5 6q25 4 54.5 11t61.5 13q31 6 61 6h4q27 0 49 -8q29 -10 43 -29.5t14 -43.5q0 -45 -43 -70t-106.5 -33t-110.5 -14 q-29 -4 -60.5 -8t-56.5 -15q-29 -10 -37 -27.5t-12 -47.5q-16 -123 -32.5 -249t-16.5 -251q0 -16 2 -49t2 -72q0 -37 -4 -73.5t-16.5 -60.5t-36.5 -29q-4 -1 -8 -1q-21 0 -52 21q-39 27 -53 68.5t-14 93.5q0 61 12 125.5t20 115.5q10 70 25.5 145.5t15.5 147.5q0 37 -6 74 q-8 33 -28.5 44t-49.5 11q-37 0 -79.5 -9t-83.5 -9q-27 0 -48.5 7t-35.5 30q-9 13 -9 34z" />
<glyph unicode="u" horiz-adv-x="1132" d="M59 123q0 41 4.5 80t6.5 67q4 66 16.5 129t26.5 129q12 59 26.5 126t26.5 126q4 25 10 55.5t16.5 60.5t24.5 55.5t35 41.5q31 25 56.5 15.5t33.5 -54.5q2 -15 2 -30q0 -26 -6 -56q-10 -47 -14 -86q-8 -53 -14.5 -88t-18.5 -88q-2 -10 -7 -38.5t-11.5 -65.5t-12.5 -78 t-9 -78q-2 -28 -2 -50v-14q1 -28 7 -36q10 -12 27.5 -16.5t38 -2.5t40 8.5l31.5 10.5q35 10 81 29.5t81 31.5q66 27 135.5 60.5t124.5 83.5q43 39 54.5 99t13.5 116q4 63 7 126.5t3 127.5q0 35 12.5 71.5t40.5 59.5q32 24 51 24h2q29 0 38.5 -33.5t9.5 -76.5q0 -35 -3.5 -70 t-7.5 -53q-10 -59 -13 -121t-3 -123q0 -57 2 -113.5t6 -113.5q2 -43 5 -88t11 -86q6 -35 19.5 -69t17.5 -69q1 -6 1 -11q0 -30 -20 -54q-18 -22 -46 -23q-8 0 -17 2q-35 6 -59.5 29t-40.5 53q-6 14 -7 26.5t-5 29.5q-4 23 -4 46t-2 42q-4 25 -16.5 32t-31 3.5t-38 -11.5 t-33.5 -14q-45 -16 -88 -34.5t-88 -39.5q-49 -23 -102.5 -38t-102.5 -40q-35 -18 -67.5 -37.5t-67.5 -35.5q-14 -6 -29.5 -16.5t-31 -16.5t-31.5 -7h-3q-15 0 -28 9q-39 25 -51.5 71t-12.5 99z" />
<glyph unicode="v" horiz-adv-x="993" d="M33 977q0 20 10 35.5t39 19.5q7 1 14 1q30 -1 52 -21q26 -26 46.5 -63.5t34 -78.5t25.5 -65q20 -49 40.5 -98.5t37.5 -100.5q16 -47 25.5 -94t19.5 -94q6 -25 13 -65t22.5 -74.5t39.5 -52.5q10 -8 23 -8q16 0 37 13q59 35 105.5 92.5t76.5 120.5q35 72 61.5 143.5 t41.5 151.5q6 35 10 70q3 23 3 47q0 12 -1 23q-2 29 -8 59.5t-4 58.5q2 25 14 51q11 25 37 25h4q35 -4 59.5 -26.5t38.5 -51.5q12 -27 18 -67q5 -34 4 -71v-13q-1 -43 -5.5 -84t-10.5 -68q-16 -66 -36.5 -127t-49.5 -119q-33 -61 -62.5 -123.5t-70.5 -119.5 q-35 -53 -73.5 -100.5t-90.5 -86.5q-29 -23 -61.5 -43t-67.5 -26q-12 -2 -23 -2q-17 0 -35 4q-28 6 -50 28q-25 23 -32 53.5t-13 61.5q-33 170 -88 340q-16 51 -26.5 102.5t-26.5 102.5q-4 12 -18.5 49t-29 77t-25.5 68.5t-9 22.5q-8 27 -21.5 60.5t-13.5 62.5z" />
<glyph unicode="w" horiz-adv-x="1464" d="M64 930q-1 9 -1.5 17.5t1.5 16.5q2 16 12 31q29 37 69 37q19 0 39 -8t30.5 -23.5t17 -35t9.5 -39t7 -35.5q18 -70 27.5 -162t17.5 -164q2 -20 3 -43.5t5 -48t12.5 -46t26.5 -36.5q8 6 23.5 21.5t31 34t28.5 35t17 26.5q20 37 45 78t41 78q33 72 54.5 139t44.5 141 q6 18 15 40t26 36q12 14 31.5 17t41.5 5q29 2 45.5 -5t24.5 -20t10 -30.5t6 -38.5q0 -33 17.5 -99.5t39 -136t39 -126t21.5 -68.5q4 -18 26.5 -69.5t52.5 -98.5t59.5 -71.5t47.5 8.5t29.5 62.5t20 61t14.5 67.5t14 81q14 72 15 154q0 111 -29 200q-10 31 -20.5 62t-10.5 57 q0 27 14.5 47.5t55.5 34.5q15 5 28 5q25 -1 45 -21q28 -32 52 -101q16 -47 22 -102t6 -115q0 -63 -5 -122.5t-11 -112.5q-6 -57 -18.5 -120t-29.5 -126t-37.5 -124.5t-45.5 -113.5q-20 -43 -65.5 -71.5t-96.5 -28.5q-39 0 -67.5 15.5t-48 39t-33 53t-23.5 60.5 q-35 94 -69.5 189.5t-85.5 185.5q-6 10 -18.5 30.5t-31.5 20.5q-20 0 -37.5 -22.5t-27.5 -34.5q-43 -51 -79 -109.5t-60 -118.5q-23 -59 -46.5 -116.5t-39.5 -116.5q-10 -33 -29 -74t-60 -57q-18 -7 -37 -7q-24 0 -48 11q-44 20 -56 51q-12 33 -12 72q0 37 5 73q4 26 4 52 q0 10 -1 20q-4 76 -15.5 148.5t-15.5 148.5q-2 39 -5 78t-13 76q-6 59 -11 98t-11.5 64.5t-11.5 42t-9 32.5q-4 14 -10 30t-8 34z" />
<glyph unicode="x" horiz-adv-x="1122" d="M41 37q0 18 5 37.5t13 40.5q27 59 54.5 112.5t64.5 106.5q16 27 34.5 51.5t39.5 50.5q32 41 56 87q15 29 15 55q0 16 -6 32q-2 10 -19 38t-38 63q-18 35 -44 66.5t-51.5 63t-48 63.5t-34.5 67q-12 31 -8 52t18 35.5t36 21.5t44 12h9q18 0 30 -6q16 -8 29.5 -23.5 t24.5 -35t24 -38.5q16 -25 38.5 -56.5t45.5 -62.5q16 -18 30.5 -37.5t30.5 -35.5q35 -37 72 -37q29 0 58.5 15.5t58.5 35.5q20 12 38.5 26.5t36.5 28.5q43 33 84 65t80 60q53 39 82 54.5t45 17.5q8 1 16 1q31 0 53 -12q26 -14 25 -62v-7q0 -23 -10 -39t-24.5 -30.5t-32 -27 t-31.5 -24.5q-49 -41 -112.5 -89t-116.5 -93q-10 -10 -19.5 -18.5t-19.5 -18.5q-41 -47 -41 -100q0 -47 33 -90q27 -43 77 -86t91 -74q35 -29 76.5 -54.5t70.5 -60.5q20 -27 20 -65q0 -27 -12 -49.5t-39 -28.5q-10 -2 -21 -2q-22 0 -48 9q-36 13 -72.5 36.5t-67 50.5 t-53.5 47q-37 37 -76 78t-80 82q-29 25 -57.5 37t-56.5 0q-12 -4 -23.5 -12.5t-21.5 -18.5q-33 -41 -62.5 -82t-56.5 -86q-18 -33 -41 -85t-50 -95q-26 -42 -58 -62q-11 -7 -22 -7q-22 0 -46 24q-39 39 -39 88z" />
<glyph unicode="y" horiz-adv-x="1042" d="M31 911q-2 14 -2 27q0 22 6 41q8 23 27.5 38t43.5 7q27 -6 43.5 -39t30.5 -55q27 -41 58.5 -76t68.5 -70q29 -25 66 -51t71 -37q27 -10 52.5 -0.5t49 28.5t43 43t36.5 42q27 29 53.5 54.5t54.5 51.5q25 23 47.5 47.5t48.5 45.5q23 18 47.5 35.5t50 28.5t53.5 14q6 1 12 1 q22 0 44 -8q33 -11 33 -33q0 -23 -19 -52q-18 -25 -41.5 -48.5t-33.5 -38.5q-25 -35 -51.5 -60.5t-53.5 -55.5q-53 -59 -111.5 -112.5t-109.5 -125.5q-16 -23 -29.5 -45.5t-17.5 -50.5q-4 -35 -4 -65t-6 -64q-8 -47 -8 -103q0 -20 1 -38.5t3 -41.5q2 -14 2 -29.5v-31.5 q0 -31 -4 -60.5t-19 -52.5q-25 -39 -55 -39q-29 0 -52.5 32t-27.5 71q-2 31 -2 62.5v62.5v100v47.5t-2 46.5q-2 31 -3 60.5t-17 56.5q-12 23 -35 34t-43 23q-61 35 -111.5 83t-93.5 104q-18 25 -37.5 56.5t-35 67t-21.5 72.5z" />
<glyph unicode="z" horiz-adv-x="983" d="M25 35q0 41 27.5 76.5t56.5 74.5q104 143 239 296t270 298q14 14 27.5 34t16 35t-10 24.5t-49.5 5.5q-43 -4 -86 -4.5t-86 -4.5q-41 -4 -84 -7t-84 -7q-14 0 -33.5 -1t-38 2t-35 11.5t-22.5 22.5q-4 11 -4 21q0 32 43 57q41 23 76 31t57 14q35 10 72 15t72 13 q121 23 237 31q47 4 93 10.5t93 10.5q14 0 34 1h10q14 0 28 -2q18 -3 30.5 -12.5t16.5 -29.5q1 -5 1 -10q0 -15 -5 -31q-6 -21 -18.5 -39.5t-26.5 -35.5t-27 -32q-39 -47 -76.5 -92t-74.5 -94q-82 -111 -175.5 -214.5t-185.5 -207.5q-8 -8 -22 -24.5t-28.5 -36t-26 -38 t-13.5 -30.5q-4 -18 12.5 -25.5t39 -7.5t46 4t33.5 8q45 12 69 21.5t60 15.5q37 6 75 13.5t75 9.5q16 0 34.5 1t35 -2t31 -12.5t20.5 -27.5q12 -35 -15.5 -56.5t-52.5 -31.5q-109 -41 -213 -65.5t-227 -53.5q-33 -8 -84 -20.5t-100 -12.5q-35 0 -64 9.5t-45 37.5 q-10 16 -14 31.5t-4 32.5z" />
<glyph unicode="{" horiz-adv-x="1196" d="M27 391q12 -27 37.5 -45t54.5 -14q37 6 73.5 6t73.5 8q41 10 82 16.5t82 10.5q53 6 105.5 14t105.5 21q41 10 84 23t78 38q23 18 19.5 48t-27.5 46q-23 14 -58 13t-61 -5l-74 -8l-74 -8q-35 -4 -71.5 -7t-69.5 -16q-47 -6 -99 -14t-97.5 -17t-78 -16.5t-40.5 -11.5 q-25 -10 -42.5 -30.5t-2.5 -51.5zM403 1051q8 20 24.5 29.5t39.5 9.5q31 0 63 -17l88 -45q47 -23 90.5 -39t77.5 -39q33 -23 69 -35t69 -34q25 -18 51 -40t16 -61q-6 -23 -18 -34t-27.5 -15t-33 -3t-33.5 3q-41 2 -79 16.5t-74 33t-70.5 39t-69.5 34.5q-25 10 -63 26.5 t-69.5 40t-49 55.5t-1.5 75zM544.5 16.5q-14.5 -36.5 10.5 -65.5q29 -35 70 -35q25 0 51 11.5t51 28.5t46.5 35.5t35.5 31.5q31 25 64.5 47t66.5 45.5t62.5 50.5t52.5 61q8 14 17 29.5t12 32t0 33t-19 32.5q-29 27 -59.5 13.5t-57.5 -27.5q-35 -18 -63.5 -44t-63.5 -46 q-37 -20 -71.5 -51t-75.5 -64l-80 -59q-35 -23 -49.5 -59.5z" />
<glyph unicode="|" horiz-adv-x="395" d="M109 1145q0 39 2 85t22 75q16 27 46 34t52 -12q20 -18 31.5 -58t16 -88t5.5 -95.5t1 -77.5q2 -61 -1 -125t-8 -123q-2 -33 -6 -77t-4 -85v-25.5t2 -59.5t3 -130t5 -238q0 -68 5.5 -134t5.5 -132q0 -20 -1 -40.5t-3 -41.5q-4 -39 -12.5 -71.5t-37.5 -44.5q-27 -10 -53 8 t-37 55q-10 37 -11 86t-5 88q-2 23 -2 45.5v44.5v88q0 49 -5 98.5t-3 98.5v80v97t-2 99q-4 145 -5 288.5t-1 287.5z" />
<glyph unicode="}" horiz-adv-x="1265" d="M141 717.5q4 15.5 13.5 31t17.5 29.5q23 35 52.5 62.5t62 51t66.5 46.5t65 47q14 12 34.5 30.5t45 35t51 29t53.5 12.5q41 0 70 -35q25 -29 10.5 -66t-49.5 -61l-80 -58q-41 -35 -76 -64.5t-71 -49.5q-35 -20 -64 -47t-63 -43q-12 -6 -27.5 -15.5t-31 -13.5t-30 -3 t-28.5 15q-16 16 -20.5 33.5t-0.5 33zM233 227q6 23 18.5 34t29 15.5t34 3.5t33.5 -4q41 -4 79 -17t74 -32.5t70.5 -40t69.5 -34.5q25 -10 62.5 -25.5t69.5 -39.5t49 -55.5t1 -74.5q-8 -23 -25.5 -32t-39.5 -9q-29 0 -62 16l-88 45q-47 23 -90 39.5t-78 38.5 q-35 23 -70.5 36t-66.5 36q-25 16 -52.5 37.5t-17.5 62.5zM404 490.5q-3 30.5 20 48.5q35 25 78 37t84 22q51 14 104 22.5t107 14.5q41 4 82 10t82 17q35 8 72.5 8t72.5 6q29 4 55.5 -14.5t38.5 -47.5q14 -29 -3 -50t-42 -32q-8 -4 -41 -11t-78 -15t-97 -17.5t-101 -15.5 q-31 -10 -68 -13t-72 -7q-37 -6 -73.5 -9.5t-73.5 -7.5q-14 -2 -29.5 -4t-32.5 -2q-37 0 -57 14q-25 16 -28 46.5z" />
<glyph unicode="~" horiz-adv-x="823" d="M55 389q0 33 7.5 65.5t17.5 59.5q8 27 22.5 58.5t35 59t46 46t56.5 20.5q43 2 96 -23.5t92 -45.5q18 -10 36.5 -27.5t38 -30t40 -15.5t41.5 15q12 10 27.5 27.5t31.5 35t34.5 30t35.5 12.5q33 0 55 -53q10 -27 6 -60t-17.5 -63.5t-33.5 -57.5t-43 -39q-29 -16 -56.5 -26 t-56.5 -10q-16 0 -31.5 3t-31.5 13q-18 10 -43 27.5t-51.5 34t-53 28.5t-49.5 14q-41 4 -60.5 -20.5t-33.5 -57t-31.5 -63.5t-54.5 -37q-41 -6 -56.5 18.5t-15.5 61.5z" />
<glyph unicode="&#xa2;" horiz-adv-x="923" d="M70 369q0 51 11 104t32.5 100.5t51.5 88t66 71.5q72 63 172 86q2 14 2.5 26.5t0.5 24.5q2 27 4 60t22 53q18 18 47 24.5t51 -6.5q33 -18 41.5 -69t8.5 -98q35 -4 68.5 -10.5t64.5 -18.5q25 -8 51.5 -21.5t45.5 -32t24.5 -43t-15.5 -55.5q-16 -23 -34.5 -32t-41.5 -9 q-41 0 -80.5 15.5t-91.5 19.5q-2 -10 -3 -20.5t-3 -20.5q-4 -35 -5 -81t-5 -79v-139v-44t-2 -48l31 12q25 12 52.5 34t56 40t58 25t58.5 -9q49 -29 49 -67q0 -37 -38 -76t-89 -71.5t-100 -56t-74 -28.5q0 -20 -1 -40.5t-5 -43.5q-4 -27 -13.5 -49t-37.5 -30q-27 -10 -52.5 2 t-35.5 39q-8 27 -9.5 59.5t-3.5 58.5q-84 10 -157.5 49t-120.5 113q-29 43 -40 92t-11 101zM240 381q0 -78 46 -122t111 -56q-2 18 -2 36.5v36.5q4 49 5 97.5t-1 95.5v139q-53 -25 -94 -63.5t-55 -89.5q-6 -20 -8 -39t-2 -35z" />
<glyph unicode="&#xad;" d="M45 463q-10 37 24.5 62.5t84.5 29.5l112 14q61 10 113.5 20.5t101.5 12.5q47 2 90 11.5t88 9.5h38t38.5 -3.5t32.5 -12.5t23 -27q8 -23 2.5 -39.5t-17.5 -28.5t-29.5 -21.5t-33.5 -17.5q-41 -20 -87 -30.5t-93.5 -15.5t-94.5 -9t-90 -12q-29 -4 -73 -12.5t-89 -8.5 q-47 0 -88 15.5t-53 62.5z" />
<glyph unicode="&#x2000;" horiz-adv-x="757" />
<glyph unicode="&#x2001;" horiz-adv-x="1514" />
<glyph unicode="&#x2002;" horiz-adv-x="757" />
<glyph unicode="&#x2003;" horiz-adv-x="1514" />
<glyph unicode="&#x2004;" horiz-adv-x="504" />
<glyph unicode="&#x2005;" horiz-adv-x="378" />
<glyph unicode="&#x2006;" horiz-adv-x="252" />
<glyph unicode="&#x2007;" horiz-adv-x="252" />
<glyph unicode="&#x2008;" horiz-adv-x="189" />
<glyph unicode="&#x2009;" horiz-adv-x="302" />
<glyph unicode="&#x200a;" horiz-adv-x="84" />
<glyph unicode="&#x2010;" d="M45 463q-10 37 24.5 62.5t84.5 29.5l112 14q61 10 113.5 20.5t101.5 12.5q47 2 90 11.5t88 9.5h38t38.5 -3.5t32.5 -12.5t23 -27q8 -23 2.5 -39.5t-17.5 -28.5t-29.5 -21.5t-33.5 -17.5q-41 -20 -87 -30.5t-93.5 -15.5t-94.5 -9t-90 -12q-29 -4 -73 -12.5t-89 -8.5 q-47 0 -88 15.5t-53 62.5z" />
<glyph unicode="&#x2011;" d="M45 463q-10 37 24.5 62.5t84.5 29.5l112 14q61 10 113.5 20.5t101.5 12.5q47 2 90 11.5t88 9.5h38t38.5 -3.5t32.5 -12.5t23 -27q8 -23 2.5 -39.5t-17.5 -28.5t-29.5 -21.5t-33.5 -17.5q-41 -20 -87 -30.5t-93.5 -15.5t-94.5 -9t-90 -12q-29 -4 -73 -12.5t-89 -8.5 q-47 0 -88 15.5t-53 62.5z" />
<glyph unicode="&#x2012;" d="M45 463q-10 37 24.5 62.5t84.5 29.5l112 14q61 10 113.5 20.5t101.5 12.5q47 2 90 11.5t88 9.5h38t38.5 -3.5t32.5 -12.5t23 -27q8 -23 2.5 -39.5t-17.5 -28.5t-29.5 -21.5t-33.5 -17.5q-41 -20 -87 -30.5t-93.5 -15.5t-94.5 -9t-90 -12q-29 -4 -73 -12.5t-89 -8.5 q-47 0 -88 15.5t-53 62.5z" />
<glyph unicode="&#x2013;" horiz-adv-x="1785" d="M47 418q12 -29 39 -46.5t55 -13.5q35 4 73 4t73 9q41 10 82 16t82 10q53 6 106 14.5t105 22.5q41 10 83.5 22.5t77.5 39.5q23 16 20 46t-28 46q-23 16 -57.5 14t-61.5 -4q-37 -4 -73.5 -8t-73.5 -10q-35 -4 -72 -7.5t-67 -13.5q-49 -6 -101.5 -14t-97.5 -17.5t-78 -16.5 t-41 -11q-25 -10 -42 -32t-3 -50zM993 489q-10 39 25 64t84 31l112 12q61 10 113.5 21.5t102.5 11.5q47 2 90 12t88 8h37.5t38 -3t33 -12t22.5 -28q16 -43 -14.5 -66.5t-63.5 -39.5q-41 -20 -87 -30.5t-92 -15.5t-93.5 -8.5t-92.5 -11.5q-29 -6 -73.5 -14t-89.5 -8 q-47 0 -87 15t-53 62z" />
<glyph unicode="&#x2014;" horiz-adv-x="1820" d="M47 418q12 -29 39 -46.5t55 -13.5q35 4 73 4t73 9q41 10 82 16t82 10q53 6 106 14.5t105 22.5q41 10 83.5 22.5t77.5 39.5q23 16 20 46t-28 46q-23 16 -57.5 14t-61.5 -4q-37 -4 -73.5 -8t-73.5 -10q-35 -4 -72 -7.5t-67 -13.5q-49 -6 -101.5 -14t-97.5 -17.5t-78 -16.5 t-41 -11q-25 -10 -42 -32t-3 -50zM993 489q-10 39 25 64t84 31l112 12q61 10 113.5 21.5t102.5 11.5q47 2 90 12t88 8h37.5t38 -3t33 -12t22.5 -28q16 -43 -14.5 -66.5t-63.5 -39.5q-41 -20 -87 -30.5t-92 -15.5t-93.5 -8.5t-92.5 -11.5q-29 -6 -73.5 -14t-89.5 -8 q-47 0 -87 15t-53 62z" />
<glyph unicode="&#x2018;" horiz-adv-x="399" d="M78 840q2 61 20.5 120.5t61.5 104.5q16 16 49 31.5t61 15.5q23 0 38.5 -12.5t19.5 -40.5q4 -27 -11.5 -45.5t-29.5 -36.5q-35 -45 -49.5 -101.5t0.5 -107.5q10 -35 17 -66.5t-19 -64.5q-18 -25 -50 -30t-57 14q-25 18 -32 48.5t-11 61.5q-2 27 -5 53.5t-3 55.5z" />
<glyph unicode="&#x2019;" horiz-adv-x="425" d="M86 682q-4 27 12.5 45t30.5 37q35 43 47 98.5t2 110.5q-10 35 -17 66.5t19 64.5q18 25 50 30t57 -14q25 -20 32 -49.5t11 -60.5q2 -27 5 -53.5t3 -55.5q-2 -61 -20.5 -120.5t-63.5 -104.5q-16 -16 -48 -31.5t-61 -15.5q-23 0 -39 11t-20 42z" />
<glyph unicode="&#x201c;" horiz-adv-x="718" d="M76 803q0 -29 3 -55.5t5 -53.5q4 -31 11 -60.5t32 -49.5q25 -18 56.5 -13.5t49.5 29.5q27 33 20 64.5t-17 66.5q-10 55 2 110.5t47 98.5q14 18 30.5 36.5t12.5 45.5q-4 31 -20.5 42t-39.5 11q-29 0 -60.5 -15.5t-47.5 -31.5q-45 -45 -63.5 -104.5t-20.5 -120.5zM387 840 q2 61 20.5 120.5t61.5 104.5q16 16 49 31.5t62 15.5q23 0 38 -12.5t19 -40.5q4 -27 -11.5 -45.5t-29.5 -36.5q-35 -45 -49.5 -101.5t0.5 -107.5q10 -35 17 -66.5t-19 -64.5q-18 -25 -50 -30t-57 14q-25 18 -32 48.5t-11 61.5q-2 27 -5 53.5t-3 55.5z" />
<glyph unicode="&#x201d;" horiz-adv-x="739" d="M84 645q-4 27 11.5 45.5t29.5 36.5q35 45 49 101.5t0 107.5q-10 35 -17 66.5t19 64.5q18 25 50 30t57 -14q25 -18 32 -48.5t11 -61.5q2 -27 5 -53.5t3 -55.5q-2 -61 -20.5 -120.5t-61.5 -104.5q-16 -16 -49 -31.5t-62 -15.5q-23 0 -38 12t-19 41zM393 682q-4 27 12.5 45 t30.5 37q35 43 47.5 98.5t1.5 110.5q-10 35 -17 66.5t19 64.5q18 25 50 30t57 -14q25 -20 32 -49.5t11 -60.5q2 -27 5 -53.5t3 -55.5q-2 -61 -20.5 -120.5t-63.5 -104.5q-16 -16 -48 -31.5t-60 -15.5q-23 0 -39.5 11t-20.5 42z" />
<glyph unicode="&#x2022;" horiz-adv-x="530" d="M113 498q12 35 51 55t85 25.5t89 -7t61 -41.5q27 -39 14.5 -79.5t-46 -71.5t-79.5 -47t-87 -4q-63 18 -85 67t-3 103z" />
<glyph unicode="&#x2026;" horiz-adv-x="1204" d="M70 35q0 27 17 54.5t44 47t57.5 26.5t55.5 -5q45 -33 58 -52.5t13 -37.5q0 -31 -28 -60q-12 -12 -35 -24.5t-47.5 -19.5t-49 -8t-40.5 9q-45 25 -45 70zM465 131q8 27 39 44.5t66.5 22.5t70.5 -5.5t51 -34.5q20 -31 11 -64t-34.5 -57.5t-63.5 -37.5t-70 -3 q-49 14 -67.5 53t-2.5 82zM883 16q0 27 17.5 54.5t44 47t57 26.5t55.5 -5q45 -33 58 -52t13 -38q0 -31 -28 -59q-12 -12 -35 -24.5t-47.5 -19.5t-49 -8t-40.5 9q-45 25 -45 69z" />
<glyph unicode="&#x202f;" horiz-adv-x="302" />
<glyph unicode="&#x205f;" horiz-adv-x="378" />
<glyph unicode="&#x2122;" horiz-adv-x="1570" d="M131.5 1196q-8.5 -25 1.5 -41q10 -14 22.5 -18t28.5 -4q25 0 51.5 5t49.5 5q18 0 30.5 -6.5t16.5 -26.5q4 -12 4 -23.5v-21.5q0 -45 -9.5 -91t-15.5 -89q-4 -31 -12 -71t-8 -77q0 -31 9 -56.5t32 -41.5t37 -13t21 17t10 36.5t3 45.5q0 25 -1 45.5t-1 30.5 q0 76 10.5 152.5t20.5 152.5q2 18 7 28.5t22 18.5q16 4 35.5 6t35.5 6q29 4 68 9.5t66 19.5t26 43q0 35 -35 45q-29 10 -70.5 1t-70.5 -15q-20 -2 -39.5 -3t-40.5 -1q-14 0 -27.5 1t-27.5 1q-35 2 -68.5 -7.5t-64.5 -13.5q-20 -2 -47 -3t-45 -11q-16 -10 -24.5 -35zM598 684 q-6 53 8.5 102.5t26.5 98.5q16 59 41.5 119.5t60.5 113.5q29 43 70 90t94 56q25 4 33 -13.5t10 -40.5t4 -43t8 -41q6 -23 11.5 -45t11.5 -43q4 -14 17.5 -31.5t23.5 -7.5q35 31 62.5 72t56.5 78q16 23 31.5 44t33.5 40q10 10 17.5 22.5t19.5 20.5q10 6 22.5 12t22.5 10 q23 6 41 -10t25 -33q8 -27 6 -51t2 -51q4 -37 5 -73t9 -81l12 -51q6 -29 13.5 -58.5t13.5 -57t11 -50t10 -32.5q6 -18 11 -36t-3 -36q-6 -23 -31 -25t-39 11q-16 10 -22.5 22t-14.5 29q-20 47 -25 95t-18 97q-6 23 -11 47.5t-11 49.5q-2 10 -5 23t-8 22q-8 10 -15 14t-17 -4 q-55 -43 -100.5 -127t-57.5 -182q-4 -20 -4 -45t-19 -41q-18 -16 -33.5 -9t-25.5 23q-25 35 -32 82t-21 86t-24.5 71.5t-24.5 69.5q-4 16 -11.5 31.5t-29.5 11.5q-23 -2 -34 -17.5t-22 -31.5q-25 -41 -39 -81t-24 -83q-4 -23 -8 -44t-2 -46q0 -37 -6 -80q-4 -27 -22.5 -33 t-41.5 4q-23 8 -31 26t-12 40z" />
<glyph unicode="&#x25fc;" horiz-adv-x="1095" d="M0 0v1096h1096v-1096h-1096z" />
</font>
</defs>
</svg>
